<?xml version="1.0" standalone="no"?>
<!DOCTYPE svg PUBLIC "-//W3C//DTD SVG 1.1//EN" "http://www.w3.org/Graphics/SVG/1.1/DTD/svg11.dtd" >
<svg xmlns="http://www.w3.org/2000/svg">
<metadata></metadata>
<defs>
<font id="sanchez_blackblack" horiz-adv-x="1634" >
<font-face units-per-em="2048" ascent="1536" descent="-512" />
<missing-glyph horiz-adv-x="512" />
<glyph unicode="&#xfb01;" horiz-adv-x="1585" d="M80 31v213q0 30 31 30h90v459h-90q-31 0 -31 31v213q0 31 31 31h90v63q0 205 105.5 311.5t309.5 106.5q62 0 115 -12.5t93.5 -36t63.5 -41t50 -42.5q7 -6 10 -9q26 -26 10 -45l-122 -162q-20 -23 -45 -4q-18 16 -31.5 24.5t-41 16.5t-63.5 8q-59 0 -83.5 -33t-24.5 -82 v-63h837q31 0 31 -31v-703h74q31 0 31 -30v-213q0 -31 -31 -31h-508q-31 0 -31 31v213q0 30 31 30h90v459h-524v-459h162q30 0 30 -30v-213q0 -31 -30 -31h-598q-31 0 -31 31zM1001 1315q0 88 61.5 149.5t149.5 61.5t149.5 -61.5t61.5 -149.5t-61.5 -149.5t-149.5 -61.5 t-149.5 61.5t-61.5 149.5z" />
<glyph unicode="&#xfb02;" horiz-adv-x="1572" d="M80 31v213q0 30 31 30h90v459h-90q-31 0 -31 31v213q0 31 31 31h90v63q0 205 105.5 311.5t309.5 106.5q62 0 115 -12.5t93.5 -36t63.5 -41t50 -42.5q7 -6 10 -9q26 -26 10 -45l-122 -162q-20 -23 -45 -4q-18 16 -31.5 24.5t-41 16.5t-63.5 8q-59 0 -83.5 -33t-24.5 -82 v-63h260q31 0 31 -31v-213q0 -31 -31 -31h-260v-459h162q30 0 30 -30v-213q0 -31 -30 -31h-598q-31 0 -31 31zM930 31v213q0 30 31 30h90v924h-37q-31 0 -31 31v213q0 31 31 31h350q31 0 31 -31v-1168h73q31 0 31 -30v-213q0 -31 -31 -31h-507q-31 0 -31 31z" />
<glyph unicode="&#xfb03;" horiz-adv-x="2459" d="M80 31v213q0 30 31 30h90v459h-90q-31 0 -31 31v213q0 31 31 31h90v63q0 205 105.5 311.5t309.5 106.5q62 0 115 -12.5t93.5 -36t63.5 -41t50 -42.5q7 -6 10 -9q26 -26 10 -45l-122 -162q-20 -23 -45 -4q-18 16 -31.5 24.5t-41 16.5t-63.5 8q-59 0 -83.5 -33t-24.5 -82 v-63h528v63q0 205 106 311.5t310 106.5q62 0 115 -12.5t93.5 -36t63.5 -41t50 -42.5q7 -6 10 -9q26 -26 10 -45l-123 -162q-20 -23 -45 -4q-19 16 -32 24.5t-40 16.5t-63 8q-59 0 -84 -33t-25 -82v-63h838q31 0 31 -31v-703h73q31 0 31 -30v-213q0 -31 -31 -31h-508 q-30 0 -30 31v213q0 30 30 30h91v459h-525v-459h162q31 0 31 -30v-213q0 -31 -31 -31h-598q-31 0 -31 31v213q0 30 31 30h90v459h-528v-459h162q30 0 30 -30v-213q0 -31 -30 -31h-598q-31 0 -31 31zM1876 1315q0 88 61.5 149.5t149.5 61.5t149.5 -61.5t61.5 -149.5 t-61.5 -149.5t-149.5 -61.5t-149.5 61.5t-61.5 149.5z" />
<glyph unicode="&#xfb04;" horiz-adv-x="2447" d="M80 31v213q0 30 31 30h90v459h-90q-31 0 -31 31v213q0 31 31 31h90v63q0 205 105.5 311.5t309.5 106.5q62 0 115 -12.5t93.5 -36t63.5 -41t50 -42.5q7 -6 10 -9q26 -26 10 -45l-122 -162q-20 -23 -45 -4q-18 16 -31.5 24.5t-41 16.5t-63.5 8q-59 0 -83.5 -33t-24.5 -82 v-63h528v63q0 205 106 311.5t310 106.5q62 0 115 -12.5t93.5 -36t63.5 -41t50 -42.5q7 -6 10 -9q26 -26 10 -45l-123 -162q-20 -23 -45 -4q-19 16 -32 24.5t-40 16.5t-63 8q-59 0 -84 -33t-25 -82v-63h260q31 0 31 -31v-213q0 -31 -31 -31h-260v-459h162q31 0 31 -30v-213 q0 -31 -31 -31h-598q-31 0 -31 31v213q0 30 31 30h90v459h-528v-459h162q30 0 30 -30v-213q0 -31 -30 -31h-598q-31 0 -31 31zM1804 31v213q0 30 31 30h90v924h-37q-30 0 -30 31v213q0 31 30 31h350q31 0 31 -31v-1168h74q31 0 31 -30v-213q0 -31 -31 -31h-508q-31 0 -31 31 z" />
<glyph horiz-adv-x="0" />
<glyph unicode="&#xd;" horiz-adv-x="2048" />
<glyph unicode=" "  horiz-adv-x="512" />
<glyph unicode="&#x09;" horiz-adv-x="512" />
<glyph unicode="&#xa0;" horiz-adv-x="512" />
<glyph unicode="!" horiz-adv-x="669" d="M145 -76q0 80 56.5 136.5t136.5 56.5q79 0 135.5 -56.5t56.5 -136.5t-56 -136t-136 -56t-136.5 56.5t-56.5 135.5zM162 1526q0 30 31 30h282q31 0 31 -30l-31 -1192q0 -31 -31 -31h-221q-30 0 -30 31z" />
<glyph unicode="&#x22;" horiz-adv-x="854" d="M100 1499q0 15 11 26t26 11h199q15 0 26.5 -11t10.5 -26l-23 -381q-2 -15 -12 -26t-25 -11h-155q-15 0 -26 11t-11 26zM481 1499q0 15 11 26t26 11h199q15 0 26.5 -11t10.5 -26l-23 -381q-2 -15 -12 -26t-25 -11h-155q-15 0 -26 11t-11 26z" />
<glyph unicode="#" horiz-adv-x="1314" d="M70 219v164q0 31 30 31h172l45 153h-116q-31 0 -31 31v164q0 31 31 31h182l47 163q9 31 39 31h221q32 0 23 -31l-47 -163h161l47 163q9 31 39 31h222q31 0 22 -31l-47 -163h102q31 0 31 -31v-164q0 -31 -31 -31h-168l-45 -153h113q31 0 31 -31v-164q0 -31 -31 -31h-176 l-49 -172q-9 -30 -39 -30h-221q-32 0 -23 30l49 172h-161l-50 -172q-9 -30 -39 -30h-221q-31 0 -22 30l49 172h-109q-30 0 -30 31zM555 414h162l45 153h-162z" />
<glyph unicode="$" horiz-adv-x="1392" d="M88 94v445q0 30 31 30h295q30 0 30 -30v-25q2 -8 6 -20.5t24 -45.5t47.5 -58t80.5 -45.5t119 -20.5q65 0 106 31t41 77q0 29 -25.5 51.5t-69 39.5t-100 33.5t-119 36t-124.5 43.5t-118.5 60t-100 81t-69 111t-25.5 146q0 188 118.5 311t321.5 136v139q0 31 31 31h250 q30 0 30 -31v-193q43 -21 93 -67l-9 37q-1 15 7.5 22.5t23.5 7.5h254q31 0 31 -30v-465q0 -31 -31 -31h-295q-31 0 -31 31v33q0 67 -64 119.5t-185 52.5q-69 0 -107.5 -27.5t-38.5 -75.5q0 -40 34.5 -70t90.5 -49t128 -40.5t147.5 -42t147.5 -56t128 -79.5t90.5 -115.5 t34.5 -161.5q0 -80 -25.5 -152t-77 -133t-138.5 -100.5t-199 -46.5v-121q0 -31 -31 -31h-250q-31 0 -31 31v166q-104 43 -155 98h-11l4 -37q3 -31 -30 -31h-254q-31 0 -31 31z" />
<glyph unicode="%" horiz-adv-x="1759" d="M63 1114q0 93 26.5 165t72.5 116t104 66t125 22q141 0 231.5 -93t90.5 -276q0 -187 -87.5 -283t-234.5 -96t-237.5 96.5t-90.5 282.5zM285 1110q0 -82 27.5 -125t78.5 -43q101 0 101 168q0 87 -24 128.5t-77 41.5q-106 0 -106 -170zM498 -121l473 1647q9 30 39 30h190 q14 0 21.5 -8t1.5 -22l-473 -1647q-9 -31 -39 -31h-191q-31 0 -22 31zM1044 365q0 93 26.5 165t72.5 115.5t104 65.5t125 22q141 0 231.5 -92.5t90.5 -275.5q0 -187 -87.5 -283t-234.5 -96t-237.5 96.5t-90.5 282.5zM1266 360q0 -81 27.5 -124t78.5 -43q101 0 101 167 q0 87 -24 128.5t-77 41.5q-106 0 -106 -170z" />
<glyph unicode="&#x26;" horiz-adv-x="1433" d="M70 410q0 69 19.5 129t48.5 102.5t72 79.5t81.5 60t85.5 44q-119 140 -119 283q0 165 107 270t297 105q197 0 304 -101t107 -266q0 -118 -79 -214.5t-197 -166.5l127 -172q6 44 6 185q0 30 31 30h389q30 0 30 -30v-166q0 -31 -30 -31h-148q-17 -131 -84 -254l17 -23h155 q31 0 31 -30v-213q0 -31 -31 -31h-268q-26 1 -47 19t-47 55l-2 4q-141 -92 -314 -92q-248 0 -395 119t-147 305zM420 436q0 -84 51 -131t147 -47q82 0 140 49l-211 289q-127 -69 -127 -160zM563 1090q0 -68 88 -156q72 35 104.5 72.5t32.5 91.5q0 52 -29 84t-79 32 q-55 0 -86 -35t-31 -89z" />
<glyph unicode="'" horiz-adv-x="473" d="M100 1499q0 15 11 26t26 11h199q15 0 26 -11t11 -26l-23 -381q-2 -15 -12 -26t-25 -11h-155q-15 0 -26 11t-11 26z" />
<glyph unicode="(" horiz-adv-x="907" d="M78 719q0 129 23.5 242t64.5 198t97 154.5t119.5 116t134.5 78t139.5 45.5t136.5 14q15 0 25.5 -11t10.5 -26v-250q0 -15 -9 -26t-27 -11q-67 0 -133.5 -35t-123 -99.5t-91.5 -168t-35 -227.5t35 -229t91.5 -170.5t123 -101.5t133.5 -36q15 0 25.5 -11t10.5 -26v-250 q0 -15 -10.5 -25.5t-25.5 -10.5q-96 0 -192.5 29.5t-191.5 97t-168 165.5t-118 246.5t-45 327.5z" />
<glyph unicode=")" horiz-adv-x="907" d="M78 -111v250q0 15 11 26t26 11q67 0 133.5 36t123 101.5t91.5 170.5t35 229t-35 227.5t-91.5 168t-123 99.5t-133.5 35q-18 0 -27.5 11t-9.5 26v250q0 15 11 26t26 11q68 0 136.5 -14t139 -45.5t134.5 -78t120 -116t96.5 -154.5t64 -198t23.5 -242q0 -179 -45 -327.5 t-117.5 -246.5t-167.5 -165.5t-191.5 -97t-192.5 -29.5q-15 0 -26 10.5t-11 25.5z" />
<glyph unicode="*" horiz-adv-x="909" d="M86 1128v142q0 16 11.5 28.5t25.5 8.5l207 -62l-187 113q-12 8 -12 25t12 28l101 98q11 11 27 12t24 -12l113 -184l-62 207q-4 14 8.5 25.5t28.5 11.5h141q16 0 28.5 -11.5t8.5 -25.5l-53 -207l106 184q8 13 24.5 12t27.5 -12l100 -98q12 -11 12 -28t-12 -25l-180 -111 l200 60q14 4 25.5 -8.5t11.5 -28.5v-142q0 -16 -11 -27.5t-26 -8.5l-202 45l180 -97q13 -8 12 -24t-12 -27l-98 -100q-10 -12 -28 -12t-26 12l-106 178l55 -199q4 -14 -8.5 -25.5t-28.5 -11.5h-141q-16 0 -28 11.5t-9 25.5l49 205l-98 -184q-8 -13 -25 -12.5t-28 12.5 l-99 100q-11 11 -12 27t12 24l187 103l-209 -51q-15 -3 -26 8.5t-11 27.5z" />
<glyph unicode="+" horiz-adv-x="1075" d="M76 444v250q0 15 11 26t26 11h258v275q0 30 30 30h283q31 0 31 -30v-275h248q15 0 25.5 -11t10.5 -26v-250q0 -15 -10.5 -25.5t-25.5 -10.5h-248v-261q0 -30 -31 -30h-283q-30 0 -30 30v261h-258q-15 0 -26 10.5t-11 25.5z" />
<glyph unicode="," horiz-adv-x="522" d="M102 133q0 63 43.5 107.5t106.5 44.5q77 0 123.5 -57.5t46.5 -157.5q0 -297 -215 -297q-17 0 -17 12v82q0 14 17 14q35 0 59.5 21t24.5 57l-4 31q-12 -6 -35 -6q-63 0 -106.5 43t-43.5 106z" />
<glyph unicode="-" horiz-adv-x="1013" d="M123 420v250q0 15 11 26t26 11h694q15 0 26 -11t11 -26v-250q0 -15 -11 -26t-26 -11h-694q-15 0 -26 11t-11 26z" />
<glyph unicode="." horiz-adv-x="503" d="M102 133q0 63 43.5 107.5t106.5 44.5t107 -44.5t44 -107.5t-44 -106t-107 -43t-106.5 43t-43.5 106z" />
<glyph unicode="/" horiz-adv-x="931" d="M55 -121l473 1647q9 30 39 30h283q31 0 22 -30l-473 -1647q-9 -31 -39 -31h-282q-14 0 -20.5 8t-2.5 23z" />
<glyph unicode="0" horiz-adv-x="1476" d="M90 743q0 150 34.5 274t95 209t144 144t179 86t202.5 27t201.5 -27t175.5 -85.5t139.5 -144.5t91.5 -209.5t33 -273.5q0 -189 -47 -334.5t-133 -237.5t-202.5 -138.5t-258.5 -46.5q-143 0 -261 46.5t-206.5 138.5t-138 238t-49.5 334zM471 737q0 -200 72.5 -306.5 t201.5 -106.5q261 0 261 413q0 212 -63.5 312t-199.5 100q-272 0 -272 -412z" />
<glyph unicode="1" horiz-adv-x="1132" d="M59 1139q-18 24 7 43l411 280q11 8 23 8h276q31 0 31 -30v-1141h274q31 0 31 -31v-237q0 -31 -31 -31h-934q-30 0 -30 31v237q0 31 30 31h308v772l-211 -143q-25 -18 -43 6z" />
<glyph unicode="2" horiz-adv-x="1378" d="M98 31v127q0 107 26.5 195t71.5 148t103 107.5t122.5 79t129 58t122.5 50t103 48t71.5 58.5t26.5 77q0 80 -55.5 125t-148.5 45q-97 0 -156 -54.5t-59 -142.5q0 -30 -31 -30h-295q-31 0 -31 30q0 115 38 212t109.5 168t180.5 111t244 40q120 0 219 -27t166 -73 t113.5 -107.5t67.5 -128.5t21 -139q0 -82 -22.5 -150t-62 -116t-90 -87.5t-108.5 -68.5t-116.5 -54.5t-115 -49.5t-102.5 -49.5t-80.5 -59.5t-47.5 -74h426v129q0 31 31 31h268q31 0 31 -31v-397q0 -31 -31 -31h-1108q-31 0 -31 31z" />
<glyph unicode="3" horiz-adv-x="1308" d="M66 248q-22 22 2 43l215 198q24 21 43 -2q151 -163 309 -163q83 0 139.5 39t56.5 104q0 123 -190 123h-127q-31 0 -31 31v210q0 31 31 31h80q209 0 209 146q0 65 -42.5 105t-123.5 40q-78 0 -132 -43.5t-54 -116.5q0 -30 -31 -30h-281q-30 0 -30 30q0 235 130.5 362.5 t399.5 127.5q115 0 209.5 -27.5t156 -71.5t103.5 -100t60 -110.5t18 -106.5q0 -71 -20.5 -131.5t-50 -96t-58.5 -60.5t-49 -35l-21 -9v-6q9 -2 24.5 -7t54.5 -28.5t69 -56t54.5 -95.5t24.5 -141q0 -182 -158.5 -298.5t-418.5 -116.5q-53 0 -102 5.5t-87.5 13t-77.5 22 t-65.5 25.5t-57.5 32.5t-48 33t-42 35.5t-34 33.5t-31 33.5t-26 28z" />
<glyph unicode="4" horiz-adv-x="1284" d="M33 471v178q0 19 0.5 25t3.5 18.5t10 23t21 27.5l598 719q6 8 24 8h285q31 0 31 -30v-721h149q31 0 31 -31v-217q0 -31 -31 -31h-149v-141h149q31 0 31 -31v-237q0 -31 -31 -31h-809q-31 0 -31 31v237q0 31 31 31h307v141h-590q-30 0 -30 31zM391 688h262v316z" />
<glyph unicode="5" horiz-adv-x="1329" d="M61 248q-22 22 2 43l216 198q24 21 43 -2q30 -33 55.5 -55.5t65 -50.5t87.5 -42.5t101 -14.5q108 0 168.5 52t60.5 140q0 74 -58 122t-186 48q-90 0 -175.5 -18t-142.5 -36t-77 -18q-25 0 -41 19.5t-16 58.5v760q0 31 31 31h940q30 0 30 -31v-369q0 -30 -30 -30h-269 q-30 0 -30 30v88h-316v-225q115 21 201 21q134 0 235 -35.5t163 -100.5t93 -150t31 -189q0 -102 -42 -193t-118 -161t-193 -111t-257 -41q-68 0 -131.5 10t-108.5 22.5t-93.5 38.5t-74.5 41.5t-64 49.5t-48.5 45t-40.5 44q-3 2 -4 3.5t-3 3.5z" />
<glyph unicode="6" horiz-adv-x="1382" d="M90 743q0 150 34.5 274t95 209t144 144t179 86t202.5 27q133 0 234.5 -33t163.5 -92.5t92.5 -137t30.5 -171.5q0 -31 -31 -31h-281q-30 0 -30 31q0 38 -53 72t-128 34q-214 0 -258 -262q162 63 293 63q132 0 231.5 -34.5t159.5 -98t89.5 -146.5t29.5 -185 q0 -103 -37 -193.5t-107.5 -160.5t-182.5 -111t-252 -41q-135 0 -247 46.5t-195.5 138.5t-130 238t-46.5 334zM477 633q14 -150 71.5 -229.5t158.5 -79.5q97 0 147.5 49t50.5 133q0 170 -231 170q-90 0 -197 -43z" />
<glyph unicode="7" horiz-adv-x="1202" d="M47 1010v430q0 30 31 30h1071q31 0 31 -30v-137q-1 -103 -26.5 -189.5t-65.5 -151t-88 -127.5t-95.5 -137t-87 -160.5t-64 -216.5t-24.5 -288q0 -33 -31 -33h-305q-31 0 -31 31q0 166 20 301t53 224t72.5 159.5t81 123.5t77 100.5t61.5 105.5t33 124h-383v-159 q0 -31 -31 -31h-268q-31 0 -31 31z" />
<glyph unicode="8" horiz-adv-x="1359" d="M84 428q0 51 12.5 97.5t33 80.5t45 63t49.5 48t45.5 32t32.5 19l13 6v6q-7 2 -19 7.5t-42 28.5t-52.5 54t-41.5 88.5t-19 126.5q0 52 17 104.5t58 106t101 94.5t154 67t209 26q114 0 207.5 -26t153.5 -67t101 -94.5t58 -106t17 -104.5q0 -69 -18 -126t-43.5 -89 t-51.5 -53.5t-44 -28.5l-18 -8v-6q5 -2 13.5 -6t32.5 -19t46 -32.5t48.5 -47.5t46 -63t32.5 -80t13 -98q0 -89 -36.5 -167.5t-107.5 -140.5t-186.5 -98t-261.5 -36t-262.5 36t-188.5 98t-109.5 140.5t-37.5 167.5zM465 471q0 -82 59 -130t160 -48q99 0 154 48.5t55 129.5 q0 29 -10 56.5t-31 52.5t-59.5 40t-90.5 15h-40q-55 0 -95.5 -15t-61.5 -40t-30.5 -52t-9.5 -57zM516 1014q0 -85 47 -119.5t117 -34.5q162 0 162 154q0 70 -42.5 115t-123.5 45q-78 0 -119 -45.5t-41 -114.5z" />
<glyph unicode="9" horiz-adv-x="1382" d="M94 977q0 103 37 193.5t107.5 160.5t183 111t252.5 41q135 0 247 -47t195.5 -138.5t129.5 -238t46 -334.5q0 -150 -34.5 -273.5t-95 -209t-144 -144t-179 -85.5t-202.5 -27q-133 0 -234.5 33t-163 92.5t-92 137t-30.5 171.5q0 31 30 31h281q31 0 31 -31q0 -38 52.5 -72.5 t127.5 -34.5q211 0 258 262q-167 -63 -293 -63q-132 0 -231.5 35t-159.5 98.5t-89.5 146.5t-29.5 185zM477 963q0 -170 232 -170q97 0 196 43q-28 309 -229 309q-97 0 -148 -49t-51 -133z" />
<glyph unicode=":" horiz-adv-x="546" d="M123 133q0 63 43 107.5t106 44.5t107.5 -44.5t44.5 -107.5t-44.5 -106t-107.5 -43t-106 43t-43 106zM123 848q0 63 43 107t106 44t107.5 -44t44.5 -107t-44.5 -106.5t-107.5 -43.5t-106 43.5t-43 106.5z" />
<glyph unicode=";" horiz-adv-x="577" d="M131 133q0 63 43.5 107.5t106.5 44.5q77 0 123.5 -57.5t46.5 -157.5q0 -287 -215 -287q-17 0 -17 12v72q0 14 17 14q35 0 59 21t24 57l-4 31q-11 -6 -34 -6q-63 0 -106.5 43t-43.5 106zM131 848q0 63 43.5 107t106.5 44t107 -44t44 -107t-44 -106.5t-107 -43.5 t-106.5 43.5t-43.5 106.5z" />
<glyph unicode="&#x3c;" horiz-adv-x="997" d="M63 502v53q0 16 10.5 34t26.5 25l731 342q15 8 26 3.5t11 -19.5v-195q0 -15 -11 -33t-26 -24l-342 -160l342 -159q15 -6 26 -24t11 -34v-194q0 -15 -11 -20t-26 3l-731 342q-16 7 -26.5 25.5t-10.5 34.5z" />
<glyph unicode="=" horiz-adv-x="1079" d="M129 168v250q0 15 11 26t26 11h747q15 0 26 -11t11 -26v-250q0 -15 -11 -26t-26 -11h-747q-15 0 -26 11t-11 26zM129 645v250q0 15 11 26t26 11h747q15 0 26 -11t11 -26v-250q0 -15 -11 -26t-26 -11h-747q-15 0 -26 11t-11 26z" />
<glyph unicode="&#x3e;" horiz-adv-x="997" d="M129 117v194q0 16 11 34t26 24l342 159l-342 160q-15 6 -26 24t-11 33v195q0 15 11 19.5t26 -3.5l731 -342q16 -7 26.5 -25t10.5 -34v-53q0 -16 -10.5 -34.5t-26.5 -25.5l-731 -342q-15 -8 -26 -3t-11 20z" />
<glyph unicode="?" horiz-adv-x="1216" d="M63 909q0 572 551 572q135 0 241 -42t169 -112.5t95 -155t32 -176.5q0 -87 -25 -157t-65 -116t-88.5 -84t-96.5 -71.5t-88 -68.5t-65 -84.5t-25 -110.5q0 -31 -30 -31h-283q-17 0 -24 7t-7 24q0 102 23 183t59.5 132t80.5 91t88 69t80.5 56.5t59.5 63t23 79.5 q0 80 -42.5 127t-111.5 47q-194 0 -194 -242q0 -30 -31 -30h-295q-31 0 -31 30zM330 -57q0 88 61.5 149.5t149.5 61.5t149.5 -61.5t61.5 -149.5t-61.5 -149.5t-149.5 -61.5t-149.5 61.5t-61.5 149.5z" />
<glyph unicode="@" horiz-adv-x="1640" d="M90 471q0 177 66.5 330t178.5 257t259.5 163t308.5 59q152 0 279 -45.5t211.5 -124t131 -183.5t46.5 -225q0 -134 -48.5 -243.5t-127.5 -178t-175 -105t-196 -36.5q-56 0 -79 18t-23 60v19l-4 -7q-5 -7 -12 -15.5t-18 -19.5t-26.5 -21.5t-33.5 -19.5t-43 -14.5t-52 -5.5 q-47 0 -92 19.5t-85.5 58.5t-65.5 109t-25 161q0 191 118 309.5t281 118.5q33 0 60 -6t42.5 -14.5t26.5 -17.5t15 -15l4 -6l2 16q3 23 26 23h125q26 0 23 -31l-62 -496h4q94 0 149.5 96.5t55.5 231.5q0 156 -112 249t-320 93q-128 0 -233.5 -47t-173.5 -125.5t-105 -179 t-37 -209.5q0 -119 41 -213.5t110 -151.5t153.5 -86.5t177.5 -29.5q78 0 146 8.5t110 21t72 25t42 21.5l13 8q11 7 21.5 4t16.5 -15l76 -169q13 -30 -12 -41q-8 -5 -23 -12t-64.5 -26.5t-102.5 -34t-134.5 -26.5t-162.5 -12q-122 0 -234.5 33t-204.5 97t-160.5 152 t-106.5 203t-38 244zM686 485q0 -67 36.5 -99t86.5 -32q38 0 83 27.5t50 73.5l23 190q-1 3 -2.5 8t-8.5 18t-16.5 22.5t-27.5 17.5t-40 8q-80 0 -132 -61.5t-52 -172.5z" />
<glyph unicode="A" horiz-adv-x="1511" d="M6 31v237q0 31 31 31h135l332 872h-158q-31 0 -31 31v238q0 30 31 30h469q70 0 105 -29.5t65 -107.5l395 -1034h133q31 0 31 -31v-237q0 -31 -31 -31h-614q-31 0 -31 31v237q0 31 31 31h129l-49 139h-410l-49 -139h131q31 0 31 -31v-237q0 -31 -31 -31h-614q-31 0 -31 31 zM662 678h229l-111 319h-10z" />
<glyph unicode="B" horiz-adv-x="1417" d="M90 31v237q0 31 31 31h131v872h-131q-31 0 -31 31v238q0 30 31 30h702q194 0 321.5 -115t127.5 -304q0 -180 -146 -299q111 -47 168.5 -131t57.5 -195q0 -223 -129.5 -324.5t-391.5 -101.5h-710q-31 0 -31 31zM604 299h182q101 0 155 43.5t54 118.5q0 70 -54.5 109.5 t-154.5 39.5h-182v-311zM604 872h131q82 0 131 38t49 104q0 77 -50.5 118.5t-139.5 41.5h-121v-302z" />
<glyph unicode="C" horiz-adv-x="1572" d="M74 743q0 145 39.5 267.5t107 208.5t158.5 146.5t194 89t213 28.5q262 0 373 -152l-6 109q-1 15 7 22.5t24 7.5h254q30 0 30 -30v-518q0 -31 -30 -31h-295q-31 0 -31 31v20q0 30 -20 65t-56 66.5t-95 52.5t-128 21q-161 0 -259.5 -109t-98.5 -301q0 -92 32 -171 t86 -131.5t124 -82.5t145 -30q274 0 405 241q3 4 4 6q16 28 41 9l207 -142q13 -10 13 -25q0 -9 -5 -20q-103 -232 -335 -335q-156 -70 -357 -70q-152 0 -286 51t-235.5 145.5t-160.5 239.5t-59 321z" />
<glyph unicode="D" horiz-adv-x="1521" d="M90 31v237q0 31 31 31h131v872h-131q-31 0 -31 31v238q0 30 31 30h567q118 0 229 -30.5t208 -93.5t169.5 -151.5t114 -212t41.5 -267.5q0 -162 -55 -299t-146 -226.5t-206.5 -139.5t-239.5 -50h-682q-31 0 -31 31zM604 299h53q99 2 171 22t127 66t82.5 127t27.5 197 q0 460 -434 460h-27v-872z" />
<glyph unicode="E" horiz-adv-x="1443" d="M90 31v237q0 31 31 31h131v872h-131q-31 0 -31 31v238q0 30 31 30h1177q31 0 31 -30v-463q0 -31 -31 -31h-268q-31 0 -31 31v194h-395v-282h320q30 0 30 -31v-237q0 -31 -30 -31h-320v-291h393v195q0 30 31 30h268q31 0 31 -30v-463q0 -31 -31 -31h-1175q-31 0 -31 31z " />
<glyph unicode="F" horiz-adv-x="1361" d="M90 31v237q0 31 31 31h131v872h-131q-31 0 -31 31v238q0 30 31 30h1177q31 0 31 -30v-463q0 -31 -31 -31h-268q-31 0 -31 31v194h-395v-282h320q30 0 30 -31v-237q0 -31 -30 -31h-320v-291h258q31 0 31 -31v-237q0 -31 -31 -31h-741q-31 0 -31 31z" />
<glyph unicode="G" horiz-adv-x="1605" d="M74 743q0 145 39.5 267.5t107 208.5t158.5 146.5t194 89t213 28.5q262 0 373 -152l-6 109q-1 15 7 22.5t24 7.5h254q30 0 30 -30v-518q0 -31 -30 -31h-295q-31 0 -31 31v20q0 30 -20 65t-56 66.5t-95 52.5t-128 21q-161 0 -259.5 -109t-98.5 -301q0 -92 32 -171 t86 -131.5t124 -82.5t145 -30q189 0 311 114v58h-348q-31 0 -31 30v215q0 31 31 31h655q31 0 31 -31v-708q0 -31 -31 -31h-235q-31 0 -31 31l2 88q-147 -133 -381 -133q-152 0 -286 51t-235.5 145.5t-160.5 239.5t-59 321z" />
<glyph unicode="H" horiz-adv-x="1701" d="M90 31v237q0 31 31 31h131v872h-131q-31 0 -31 31v238q0 30 31 30h614q31 0 31 -30v-238q0 -31 -31 -31h-131v-292h494v292h-131q-31 0 -31 31v238q0 30 31 30h614q31 0 31 -30v-238q0 -31 -31 -31h-131v-872h131q31 0 31 -31v-237q0 -31 -31 -31h-614q-31 0 -31 31v237 q0 31 31 31h131v291h-494v-291h131q31 0 31 -31v-237q0 -31 -31 -31h-614q-31 0 -31 31z" />
<glyph unicode="I" horiz-adv-x="856" d="M90 31v237q0 31 31 31h131v872h-131q-31 0 -31 31v238q0 30 31 30h614q31 0 31 -30v-238q0 -31 -31 -31h-131v-872h131q31 0 31 -31v-237q0 -31 -31 -31h-614q-31 0 -31 31z" />
<glyph unicode="J" horiz-adv-x="964" d="M68 31v237q0 31 30 31q93 0 158 22.5t101 66.5t51.5 99.5t15.5 130.5v553h-131q-31 0 -31 31v238q0 30 31 30h614q31 0 31 -30v-238q0 -31 -31 -31h-131v-524q0 -176 -43 -301t-131 -201t-211 -110.5t-293 -34.5q-30 0 -30 31z" />
<glyph unicode="K" horiz-adv-x="1587" d="M90 31v237q0 31 31 31h131v872h-131q-31 0 -31 31v238q0 30 31 30h565q31 0 31 -30v-238q0 -31 -31 -31h-82v-372h74q179 0 251 89.5t72 282.5h-131q-30 0 -30 31v238q0 30 30 30h615q31 0 31 -30v-238q0 -31 -31 -31h-131q0 -349 -203 -522q34 -20 59 -54t52 -95 l81 -201h140q30 0 30 -31v-237q0 -31 -30 -31h-289q-102 0 -166 141l-139 308q-30 65 -109 65h-176v-215h182q31 0 31 -31v-237q0 -31 -31 -31h-665q-31 0 -31 31z" />
<glyph unicode="L" horiz-adv-x="1308" d="M90 31v237q0 31 31 31h131v872h-131q-31 0 -31 31v238q0 30 31 30h606q15 0 26 -10.5t11 -25.5v-226q0 -15 -11 -26t-26 -11h-123v-872h342v195q0 30 31 30h268q31 0 31 -30v-457q0 -15 -11 -26t-26 -11h-1118q-31 0 -31 31z" />
<glyph unicode="M" horiz-adv-x="1933" d="M90 31v237q0 31 31 31h131v872h-131q-31 0 -31 31v238q0 30 31 30h434q104 0 147 -114l166 -430l93 -252h12q41 115 94 252l170 430q47 114 147 114h428q31 0 31 -30v-238q0 -31 -31 -31h-131v-872h131q31 0 31 -31v-237q0 -31 -31 -31h-552q-31 0 -31 31v237q0 31 31 31 h69v516h-6l-211 -606q-36 -98 -145 -98q-110 0 -146 98l-211 606h-6v-516h70q31 0 31 -31v-237q0 -31 -31 -31h-553q-31 0 -31 31z" />
<glyph unicode="N" horiz-adv-x="1656" d="M90 31v237q0 31 31 31h131v862h-131q-31 0 -31 31v248q0 30 31 30h391q28 0 49 -7.5t40.5 -28.5t27.5 -32.5t30 -45.5l314 -502q24 -41 50.5 -96t40.5 -90l15 -35h8v538h-131q-30 0 -30 31v238q0 30 30 30h615q31 0 31 -30v-238q0 -31 -31 -31h-131v-1140q0 -31 -31 -31 h-242q-50 0 -81.5 24.5t-63.5 73.5l-344 547q-16 24 -33 56.5t-26 53.5l-9 21h-6v-477h131q31 0 31 -31v-237q0 -31 -31 -31h-614q-31 0 -31 31z" />
<glyph unicode="O" d="M72 743q0 145 43 268t115.5 208.5t168.5 146t202 89t216 28.5t216 -28.5t202 -89t169 -146t116 -208.5t43 -268q0 -231 -99.5 -404.5t-267.5 -263t-379 -89.5q-156 0 -293.5 56.5t-237 155t-157 240.5t-57.5 305zM453 737q0 -176 103 -297t261 -121t261.5 121t103.5 297 q0 187 -103 299.5t-264 112.5q-159 0 -260.5 -112.5t-101.5 -299.5z" />
<glyph unicode="P" horiz-adv-x="1361" d="M90 31v237q0 31 31 31h131v872h-131q-31 0 -31 31v238q0 30 31 30h694q225 0 369.5 -151t144.5 -371q0 -218 -149 -349.5t-394 -131.5h-182v-168h166q31 0 31 -31v-237q0 -31 -31 -31h-649q-31 0 -31 31zM604 741h137q126 0 179 54.5t53 152.5q0 106 -62 164.5t-166 58.5 h-141v-430z" />
<glyph unicode="Q" d="M72 743q0 145 43 268t115.5 208.5t168.5 146t202 89t216 28.5t216 -28.5t202 -89t169 -146t116 -208.5t43 -268q0 -160 -49 -295t-136 -230t-206 -153t-259 -73q4 -6 11 -12.5t27 -18t47 -20t74.5 -15t105.5 -6.5q80 0 120 7t80 24q13 6 24.5 3t14.5 -13l70 -199 q5 -10 0.5 -21.5t-14.5 -15.5q-43 -19 -134.5 -39t-183.5 -20q-75 0 -145 13.5t-125 37t-104.5 53.5t-86 63t-68 66.5t-52 63.5t-35 53.5t-21.5 37.5l-6 13q-201 85 -320.5 269t-119.5 427zM453 737q0 -175 103 -295t261 -120t261.5 120t103.5 295q0 187 -103 299.5 t-264 112.5q-159 0 -260.5 -112.5t-101.5 -299.5z" />
<glyph unicode="R" horiz-adv-x="1499" d="M90 31v237q0 31 31 31h131v872h-131q-31 0 -31 31v238q0 30 31 30h704q228 0 371 -138.5t143 -356.5q0 -131 -57 -230t-162 -157q41 -41 70 -90l108 -199h140q30 0 30 -31v-237q0 -31 -30 -31h-299q-54 0 -93.5 36t-72.5 105l-139 287q-42 86 -123 86h-107v-215h176 q31 0 31 -31v-237q0 -31 -31 -31h-659q-31 0 -31 31zM604 788h133q127 0 186.5 43t59.5 134q0 206 -246 206h-133v-383z" />
<glyph unicode="S" horiz-adv-x="1409" d="M96 31v497q0 31 31 31h295q31 0 31 -31v-24q2 -8 6.5 -20t27 -44t53 -56.5t89 -44.5t131.5 -20q71 0 109 31t38 72q0 35 -33.5 63t-88.5 46.5t-125.5 41t-143.5 44t-143.5 58.5t-125.5 82.5t-88.5 116.5t-33.5 160q0 199 132.5 324t356.5 125q232 0 355 -123l-8 80 q-3 30 30 30h254q31 0 31 -30v-508q0 -31 -31 -31h-295q-30 0 -30 31v33q0 68 -65 126t-185 58q-83 0 -123.5 -32t-40.5 -83q0 -37 28 -66t75.5 -49.5t109 -39t129.5 -38t135.5 -42.5t129 -56.5t109 -76t75.5 -105.5t28 -141q0 -84 -29 -159t-86 -138t-155 -100t-224 -37 q-60 0 -115.5 9.5t-96.5 25t-76 34.5t-59 38t-41 34.5t-26 24.5l-9 10l4 -131q3 -31 -31 -31h-254q-31 0 -31 31z" />
<glyph unicode="T" horiz-adv-x="1427" d="M37 979v455q0 15 11 25.5t26 10.5h1278q15 0 26 -10.5t11 -25.5v-455q0 -15 -11 -26t-26 -11h-256q-15 0 -26 11t-11 26v192h-164v-872h125q15 0 26 -11t11 -26v-225q0 -15 -11 -26t-26 -11h-602q-15 0 -26 11t-11 26v225q0 15 11 26t26 11h125v872h-176v-192 q0 -15 -11 -26t-26 -11h-256q-15 0 -26 11t-11 26z" />
<glyph unicode="U" horiz-adv-x="1544" d="M27 1202v238q0 30 30 30h615q30 0 30 -30v-238q0 -31 -30 -31h-131v-630q0 -40 10 -75t34.5 -69t73 -54.5t117.5 -20.5q104 0 166 61t62 147v641h-132q-30 0 -30 31v238q0 30 30 30h615q31 0 31 -30v-238q0 -31 -31 -31h-131v-622q0 -273 -158 -418t-422 -145 q-174 0 -304.5 61.5t-207 190t-76.5 311.5v622h-131q-30 0 -30 31z" />
<glyph unicode="V" horiz-adv-x="1550" d="M-20 1202v238q0 30 30 30h625q31 0 31 -30v-238q0 -31 -31 -31h-119l250 -688h20l248 688h-116q-31 0 -31 31v238q0 30 31 30h624q31 0 31 -30v-238q0 -31 -31 -31h-123l-405 -1034q-30 -78 -65 -107.5t-105 -29.5h-135q-70 0 -105 29.5t-65 107.5l-408 1034h-121 q-30 0 -30 31z" />
<glyph unicode="W" horiz-adv-x="2125" d="M-8 1202v238q0 30 31 30h624q31 0 31 -30v-238q0 -31 -31 -31h-129l129 -688h21l231 987h324l235 -987h21l129 688h-129q-31 0 -31 31v238q0 30 31 30h624q31 0 31 -30v-238q0 -31 -31 -31h-114l-283 -1034q-22 -77 -59.5 -107t-110.5 -30h-135q-74 0 -113 30.5 t-57 106.5l-164 701h-14l-158 -701q-18 -76 -57 -106.5t-113 -30.5h-135q-73 0 -110.5 30t-59.5 107l-285 1034h-112q-31 0 -31 31z" />
<glyph unicode="X" horiz-adv-x="1648" d="M63 31v237q0 31 31 31h144l362 426l-362 446h-144q-31 0 -31 31v238q0 30 31 30h625q31 0 31 -30v-238q0 -31 -31 -31h-90l194 -258l195 258h-88q-31 0 -31 31v238q0 30 31 30h624q31 0 31 -30v-238q0 -31 -31 -31h-145l-362 -446l362 -426h145q31 0 31 -31v-237 q0 -31 -31 -31h-624q-31 0 -31 31v237q0 31 31 31h88l-195 236l-194 -236h90q31 0 31 -31v-237q0 -31 -31 -31h-625q-31 0 -31 31z" />
<glyph unicode="Y" horiz-adv-x="1480" d="M-20 1202v238q0 30 30 30h652q30 0 30 -30v-238q0 -31 -30 -31h-103l189 -319h10l182 319h-113q-30 0 -30 31v238q0 30 30 30h646q30 0 30 -30v-238q0 -31 -30 -31h-140q-316 -486 -418 -616v-256h138q30 0 30 -31v-237q0 -31 -30 -31h-629q-31 0 -31 31v237q0 31 31 31 h137v256q-60 77 -411 616h-140q-30 0 -30 31z" />
<glyph unicode="Z" horiz-adv-x="1427" d="M102 37v207q0 44 68 125l672 802h-408v-188q0 -15 -11 -26t-26 -11h-258q-15 0 -26 11t-11 26v451q0 15 11 25.5t26 10.5h1149q15 0 26 -10.5t11 -25.5v-181q0 -43 -15 -75t-46 -68l-678 -811h407v188q0 15 11 26t26 11h258q15 0 26 -11t11 -26v-450q0 -15 -11 -26 t-26 -11h-1149q-15 0 -26 11t-11 26z" />
<glyph unicode="[" horiz-adv-x="923" d="M182 -115v1653q0 31 31 31l596 -2q15 0 26 -11t11 -26v-250q0 -15 -11 -26t-26 -11h-283v-1065h283q15 0 26 -11t11 -26v-250q0 -15 -11 -25.5t-26 -10.5h-596q-31 0 -31 30z" />
<glyph unicode="\" horiz-adv-x="931" d="M55 1526q-9 30 23 30h282q30 0 39 -30l473 -1647q9 -31 -22 -31h-283q-30 0 -39 31z" />
<glyph unicode="]" horiz-adv-x="923" d="M78 -109v250q0 15 11 26t26 11h282v1065h-282q-15 0 -26 11t-11 26v250q0 15 11 26t26 11l596 2q30 0 30 -31v-1653q0 -30 -30 -30h-596q-15 0 -26 10.5t-11 25.5z" />
<glyph unicode="_" horiz-adv-x="1294" d="M113 -80q0 15 11 26t26 11h995q15 0 26 -11t11 -26v-250q0 -15 -11 -26t-26 -11h-995q-15 0 -26 11t-11 26v250z" />
<glyph unicode="`" horiz-adv-x="724" d="M51 1470q-1 15 8 27l150 178q11 12 26.5 14t26.5 -8l397 -360q12 -11 13.5 -26t-8.5 -27l-119 -142q-10 -12 -25.5 -13.5t-27.5 7.5l-429 326q-11 9 -12 24z" />
<glyph unicode="a" horiz-adv-x="1163" d="M49 283q0 147 129.5 227t376.5 80h123v6q0 121 -150 121q-76 0 -133.5 -16.5t-87.5 -33t-37 -16.5q-20 0 -30 15l-136 172q-14 21 2 34q6 6 18 16t53.5 36t89.5 46t126 36t162 16q102 0 184.5 -23.5t147 -73.5t100 -135t35.5 -200v-316h92q31 0 31 -30v-213 q0 -31 -31 -31h-285q-47 0 -73.5 26.5t-26.5 73.5v62h-4q-4 -7 -11 -19.5t-36 -43.5t-63.5 -54.5t-95.5 -43t-130 -19.5q-158 0 -249 83t-91 218zM410 346q0 -76 116 -76q91 0 152 74v80h-98q-82 0 -126 -21t-44 -57z" />
<glyph unicode="b" horiz-adv-x="1239" d="M8 1227v213q0 30 31 30h389q31 0 31 -30v-428l-10 -103h10q3 5 9 12.5t29 27t50 34.5t73.5 27t98.5 12q212 0 334.5 -142t122.5 -372q0 -251 -127.5 -386.5t-333.5 -135.5q-55 0 -103.5 11t-79 27t-53 32t-31.5 27l-10 11h-4v-63q0 -31 -31 -31h-241q-31 0 -31 31v1165 h-92q-31 0 -31 31zM463 508q0 -115 50.5 -173.5t131.5 -58.5q91 0 141 64t50 170q0 103 -52.5 162t-138.5 59q-77 0 -129.5 -55.5t-52.5 -167.5z" />
<glyph unicode="c" horiz-adv-x="1169" d="M59 506q0 121 43.5 221t115 163t160 97.5t181.5 34.5q60 0 112 -13t82.5 -31t53 -36.5t31.5 -31.5l8 -13h4l-4 80q-3 31 31 31h184q31 0 31 -31v-399q0 -31 -31 -31h-230q-30 0 -30 31v24q-3 56 -52 91.5t-126 35.5q-83 0 -148 -57t-65 -164q0 -109 66 -170.5t165 -61.5 q40 0 80 12.5t68.5 30t51.5 34.5t35 29l11 13q24 28 47 2l137 -149q22 -25 4 -49q-8 -13 -25 -32.5t-58.5 -53t-91.5 -60.5t-128 -47t-164 -20q-152 0 -275.5 60.5t-198.5 180.5t-75 279z" />
<glyph unicode="d" horiz-adv-x="1284" d="M63 508q0 228 127 371t340 143q52 0 97 -11.5t72 -28t46.5 -33.5t26.5 -29l8 -11h4q-4 44 -4 103v184h-92q-31 0 -31 31v213q0 30 31 30h389q31 0 31 -30v-1166h90q31 0 31 -30v-213q0 -31 -31 -31h-285q-47 0 -73.5 26.5t-26.5 73.5v17h-4q-4 -5 -11 -14t-33 -31.5 t-56.5 -40t-80 -31.5t-104.5 -14q-206 0 -333.5 135.5t-127.5 386.5zM403 510q0 -106 50 -170t141 -64q81 0 131.5 58.5t50.5 173.5q0 112 -52.5 167.5t-129.5 55.5q-86 0 -138.5 -59t-52.5 -162z" />
<glyph unicode="e" horiz-adv-x="1144" d="M59 506q0 97 31 181.5t83 145t119.5 104t141.5 64.5t148 21q247 0 371 -135t124 -391q0 -15 -11 -26t-26 -11h-624q18 -91 78.5 -137t146.5 -46q44 0 86 11.5t71 28t52 33.5t34 29l11 11q24 28 47 2l129 -143q12 -14 12 -27q0 -11 -8 -22q-8 -13 -25 -32.5t-58.5 -53 t-91.5 -60.5t-128 -47t-164 -20q-152 0 -275.5 60.5t-198.5 180.5t-75 279zM422 631h330q-2 21 -10 40.5t-24.5 40t-48 32.5t-73.5 12q-148 0 -174 -125z" />
<glyph unicode="f" horiz-adv-x="876" d="M80 31v213q0 30 31 30h90v459h-90q-31 0 -31 31v213q0 31 31 31h90v63q0 205 105.5 311.5t309.5 106.5q62 0 115 -12.5t93.5 -36t63.5 -41t50 -42.5q7 -6 10 -9q16 -16 16 -30q0 -8 -6 -15l-122 -162q-20 -23 -45 -4q-18 16 -31.5 24.5t-41 16.5t-63.5 8q-59 0 -83.5 -33 t-24.5 -82v-63h260q31 0 31 -31v-213q0 -31 -31 -31h-260v-459h162q30 0 30 -30v-213q0 -31 -30 -31h-598q-31 0 -31 31z" />
<glyph unicode="g" horiz-adv-x="1277" d="M61 498q0 252 128 389t333 137q55 0 103.5 -11.5t79 -28t53 -33.5t32.5 -29l9 -11h4v66q0 31 31 31h352q31 0 31 -31v-213q0 -31 -31 -31h-80v-733q0 -97 -29 -177.5t-80 -137t-121.5 -95t-153 -57t-175.5 -18.5q-73 0 -141.5 14.5t-109 29.5t-89 45t-58.5 38.5t-40 33.5 q-30 26 -13 48l125 182q15 24 45 2q1 -1 20 -15t22.5 -16.5t22 -14.5t28.5 -15t31 -11t39.5 -10.5t45 -5t55.5 -2.5q248 0 248 182v96q-3 -5 -9 -12.5t-29 -26.5t-50 -34t-73.5 -27t-98.5 -12q-212 0 -334.5 142t-122.5 372zM401 496q0 -103 52.5 -162.5t138.5 -59.5 q76 0 129 56t53 168q0 115 -50.5 173t-131.5 58q-91 0 -141 -63.5t-50 -169.5z" />
<glyph unicode="h" horiz-adv-x="1259" d="M51 31v213q0 30 31 30h90v922h-90q-31 0 -31 31v213q0 30 31 30h403q31 0 31 -30v-377q0 -37 -18 -154h6q82 113 252 113q162 0 253 -101t93 -262v-385h92q31 0 31 -30v-213q0 -31 -31 -31h-336q-47 0 -73.5 26.5t-26.5 73.5v439q0 35 -2 58.5t-9.5 48t-21 39t-37 23.5 t-57.5 9q-17 0 -32 -3.5t-25.5 -9.5t-19.5 -14t-14.5 -16t-10 -16.5t-7 -16t-4 -13.5t-2.5 -9v-3v-342h74q31 0 31 -30v-213q0 -31 -31 -31h-508q-31 0 -31 31z" />
<glyph unicode="i" horiz-adv-x="714" d="M80 31v213q0 30 31 30h90v459h-90q-31 0 -31 31v213q0 31 31 31h403q31 0 31 -31v-703h73q31 0 31 -30v-213q0 -31 -31 -31h-507q-31 0 -31 31zM150 1315q0 88 61 149.5t149 61.5t149.5 -61.5t61.5 -149.5t-61.5 -149.5t-149.5 -61.5t-149 61.5t-61 149.5z" />
<glyph unicode="j" horiz-adv-x="649" d="M-240 -320v7q0 11 7 20l116 156q9 11 25.5 13t28.5 -7q2 -2 10.5 -9t11 -9.5t10.5 -8.5t13.5 -8t15 -6t18 -5.5t21 -3t26.5 -1.5q59 0 85 33t26 81v801h-92q-31 0 -31 31v213q0 31 31 31h405q31 0 31 -31v-1045q0 -205 -106 -311t-310 -106q-50 0 -95.5 9.5t-75.5 21 t-62 32t-46.5 32.5t-37.5 33q-3 3 -5.5 5t-4.5 4q-12 12 -15 28zM119 1315q0 88 61.5 149.5t149.5 61.5t149.5 -61.5t61.5 -149.5t-61.5 -149.5t-149.5 -61.5t-149.5 61.5t-61.5 149.5z" />
<glyph unicode="k" horiz-adv-x="1290" d="M51 31v213q0 30 31 30h90v922h-90q-31 0 -31 31v213q0 30 31 30h403q31 0 31 -30v-862l191 155h-64q-31 0 -31 31v213q0 31 31 31h508q31 0 31 -31v-213q0 -31 -31 -31h-109l-202 -160l225 -299h141q31 0 31 -30v-213q0 -31 -31 -31h-223q-77 0 -143 90l-224 307 l-100 -80v-43h74q31 0 31 -30v-213q0 -31 -31 -31h-508q-31 0 -31 31z" />
<glyph unicode="l" horiz-adv-x="700" d="M57 31v213q0 30 31 30h90v924h-90q-31 0 -31 31v213q0 31 31 31h404q30 0 30 -31v-1168h74q31 0 31 -30v-213q0 -31 -31 -31h-508q-31 0 -31 31z" />
<glyph unicode="m" horiz-adv-x="1869" d="M80 31v213q0 30 31 30h90v459h-90q-31 0 -31 31v213q0 31 31 31h352q31 0 31 -31v-129h8q0 3 7.5 19t29 43t52 51.5t85 42.5t119.5 18q104 0 177 -44.5t111 -123.5q84 168 293 168q161 0 248.5 -100.5t87.5 -262.5v-385h92q31 0 31 -30v-213q0 -31 -31 -31h-336 q-47 0 -73.5 26.5t-26.5 73.5v439q0 35 -2 58.5t-9.5 48t-21 39t-37 23.5t-57.5 9q-33 0 -56.5 -12t-34.5 -29.5t-15.5 -31.5t-4.5 -23v-347h93q30 0 30 -30v-213q0 -31 -30 -31h-508q-31 0 -31 31v213q0 30 31 30h71v265q0 35 -2 58.5t-9.5 48t-21 39t-37 23.5t-57.5 9 q-17 0 -32 -3.5t-25.5 -9.5t-19 -14t-14.5 -16t-10.5 -16.5t-6.5 -16t-3.5 -13.5t-1.5 -9l-1 -3v-342h45q31 0 31 -30v-213q0 -31 -31 -31h-479q-31 0 -31 31z" />
<glyph unicode="n" horiz-adv-x="1288" d="M80 31v213q0 30 31 30h90v459h-90q-31 0 -31 31v213q0 31 31 31h352q31 0 31 -31v-127h8q1 4 3.5 10t12.5 24t23 34t36.5 36t51.5 34t69.5 24t89.5 10q161 0 250.5 -100.5t91.5 -262.5v-385h93q30 0 30 -30v-213q0 -31 -30 -31h-336q-47 0 -74 26.5t-27 73.5v439 q0 35 -2 58.5t-9.5 48t-21 39t-37 23.5t-57.5 9q-27 0 -48.5 -9.5t-33 -21t-19 -27.5t-10 -25t-3.5 -16v-344h73q31 0 31 -30v-213q0 -31 -31 -31h-507q-31 0 -31 31z" />
<glyph unicode="o" horiz-adv-x="1212" d="M61 506q0 235 149 375.5t396 140.5t396 -140.5t149 -375.5q0 -238 -146 -379t-401 -141q-253 0 -398 141t-145 379zM412 508q0 -105 50.5 -168.5t141.5 -63.5q92 0 144.5 63.5t52.5 168.5q0 102 -52.5 161.5t-142.5 59.5q-89 0 -141.5 -59.5t-52.5 -161.5z" />
<glyph unicode="p" horiz-adv-x="1280" d="M49 -219q0 31 31 31h92v921h-80q-31 0 -31 31v213q0 31 31 31h352q31 0 31 -31l-2 -66h6q3 5 10 12t31.5 26.5t53.5 34t78 26.5t104 12q206 0 333.5 -136.5t127.5 -387.5q0 -229 -122.5 -370.5t-334.5 -141.5q-52 0 -98 9.5t-74.5 22.5t-49.5 26t-30 22l-8 10h-6 q6 -59 6 -82v-182h147q31 0 31 -31v-213q0 -31 -31 -31h-567q-31 0 -31 31v213zM504 498q0 -112 53 -168t129 -56q86 0 138.5 59.5t52.5 162.5q0 106 -50 169.5t-141 63.5q-81 0 -131.5 -58t-50.5 -173z" />
<glyph unicode="q" horiz-adv-x="1239" d="M63 500q0 251 127.5 386.5t333.5 135.5q55 0 103.5 -11t79 -27t53 -32.5t32.5 -27.5l9 -11h4v64q0 31 31 31h241q31 0 31 -31v-1165h92q31 0 31 -31v-213q0 -31 -31 -31h-567q-31 0 -31 31v213q0 31 31 31h147v184l4 102h-4q-3 -5 -9 -12.5t-29 -26.5t-50 -34t-73.5 -27 t-98.5 -12q-212 0 -334.5 142t-122.5 372zM403 498q0 -103 52.5 -162.5t138.5 -59.5q76 0 129 56t53 168q0 115 -50.5 173t-131.5 58q-91 0 -141 -63.5t-50 -169.5z" />
<glyph unicode="r" horiz-adv-x="966" d="M80 31v213q0 30 31 30h90v459h-90q-31 0 -31 31v213q0 31 31 31h352q31 0 31 -31v-209h10q4 10 11.5 27.5t39.5 61t72.5 77t113 61t158.5 27.5q15 0 26 -11t11 -26v-274q0 -15 -11 -26t-26 -11h-90q-101 0 -182.5 -65t-81.5 -152v-183h73q31 0 31 -30v-213q0 -31 -31 -31 h-507q-31 0 -31 31z" />
<glyph unicode="s" horiz-adv-x="1077" d="M74 37l2 317q0 15 11 26t26 11h192q15 0 26 -10t11 -25v-6q1 -4 4.5 -11t18 -24.5t33.5 -31t54 -24.5t78 -11q103 0 103 61q0 18 -22.5 31.5t-59.5 21t-84.5 19t-97 23.5t-97 36t-84.5 56t-59.5 84t-22.5 118q0 142 97 233t280 91q185 0 275 -104h4q-6 41 -6 47 q0 17 10.5 26.5t26.5 9.5h149q15 0 26 -10.5t11 -25.5l-2 -322q0 -15 -11 -26t-26 -11h-192q-15 0 -26 11t-11 26v10q0 43 -47.5 73t-120.5 30q-45 0 -71 -18.5t-26 -49.5q0 -29 31 -47t80.5 -28.5t109 -21.5t119 -31.5t109 -51t80.5 -88t31 -135.5q0 -43 -12.5 -84t-43 -81 t-76 -69.5t-116.5 -48t-160 -18.5q-49 0 -97 11t-80.5 26.5t-58.5 31t-38 26.5l-13 11h-4q4 -37 4 -53q0 -15 -11 -26t-26 -11h-163q-15 0 -26 11t-11 26z" />
<glyph unicode="t" horiz-adv-x="913" d="M35 770v201q0 15 11 26t26 11h84v243q0 15 11 26t26 11h272q15 0 26 -11t11 -26v-243h254q15 0 26 -11t11 -26v-201q0 -15 -11 -26t-26 -11h-254v-330q0 -49 24.5 -81.5t83.5 -32.5q14 0 26.5 1.5t21 3t18.5 5.5l15 6t13.5 8.5t10.5 8t11.5 9.5t10.5 9q12 9 28.5 7 t25.5 -13l116 -156q7 -9 7 -20v-7q-2 -16 -15 -28q-65 -58 -104 -80q-98 -57 -224 -57q-204 0 -309.5 106t-105.5 311v330h-84q-15 0 -26 11t-11 26z" />
<glyph unicode="u" horiz-adv-x="1261" d="M37 764v213q0 31 31 31h335q47 0 74 -27t27 -74v-438q0 -35 2 -58.5t9.5 -48t21 -39t37 -23.5t57.5 -9q33 0 57.5 12.5t35.5 31t16 32t5 22.5v344h-73q-31 0 -31 31v213q0 31 31 31h387q31 0 31 -31v-703h90q30 0 30 -30v-213q0 -31 -30 -31h-285q-47 0 -73.5 26.5 t-26.5 73.5v58h-7q-1 -7 -5 -18.5t-22.5 -41t-45 -52.5t-78.5 -41.5t-117 -18.5q-163 0 -261.5 101.5t-98.5 260.5v385h-92q-31 0 -31 31z" />
<glyph unicode="v" horiz-adv-x="1304" d="M20 764v213q0 31 31 31h518q31 0 31 -31v-213q0 -31 -31 -31h-59l141 -448h4l142 448h-64q-31 0 -31 31v213q0 31 31 31h522q31 0 31 -31v-213q0 -31 -31 -31h-104l-227 -670q-14 -40 -29.5 -51.5t-56.5 -11.5h-369q-41 0 -56.5 11.5t-29.5 51.5l-229 670h-103 q-31 0 -31 31z" />
<glyph unicode="w" horiz-adv-x="1839" d="M20 764v213q0 31 31 31h522q31 0 31 -31v-213q0 -31 -31 -31h-67l104 -448h4l117 448h-16q-31 0 -31 31v213q0 31 31 31h409q31 0 31 -31v-213q0 -31 -31 -31h-14l117 -448h4l100 448h-65q-31 0 -31 31v213q0 31 31 31h522q31 0 31 -31v-213q0 -31 -31 -31h-102 l-203 -655q-12 -41 -34 -59.5t-65 -18.5h-292q-88 0 -99 78l-71 407h-4l-70 -407q-11 -78 -98 -78h-293q-43 0 -65 18.5t-34 59.5l-204 655h-103q-31 0 -31 31z" />
<glyph unicode="x" horiz-adv-x="1261" d="M80 31v213q0 30 31 30h92l211 248l-240 211h-61q-31 0 -31 31v213q0 31 31 31h493q31 0 31 -31v-213q0 -31 -31 -31h-55l145 -125l92 125h-16q-31 0 -31 31v213q0 31 31 31h379q31 0 31 -31v-213q0 -31 -31 -31h-92l-207 -256l238 -203h59q31 0 31 -30v-213 q0 -31 -31 -31h-494q-30 0 -30 31v213q0 30 30 30h45l-135 117l-92 -117h16q31 0 31 -30v-213q0 -31 -31 -31h-378q-31 0 -31 31z" />
<glyph unicode="y" horiz-adv-x="1275" d="M23 764v213q0 31 30 31h490q30 0 30 -31v-213q0 -31 -30 -31h-39l121 -448h4l141 448h-63q-31 0 -31 31v213q0 31 31 31h522q31 0 31 -31v-213q0 -31 -31 -31h-105l-280 -801q-23 -66 -37.5 -105t-37 -89.5t-42.5 -79t-48.5 -60t-60 -47t-73.5 -26t-92 -10.5 q-62 0 -113.5 11.5t-94 36.5t-60.5 38.5t-51 42.5q-6 5 -9 8q-30 30 -14 49l131 168q18 21 45 0q3 -2 10.5 -9t10.5 -9.5t11 -8.5t13.5 -8t14.5 -6t18.5 -5.5t22 -3t26.5 -1.5q25 0 43.5 9.5t31.5 29t19.5 34.5t15.5 41l23 68h-72q-42 0 -63 18t-35 60l-223 655h-101 q-30 0 -30 31z" />
<glyph unicode="z" horiz-adv-x="1159" d="M90 31v168q0 44 11.5 64.5t41.5 47.5l498 422h-295v-117q0 -30 -31 -30h-194q-31 0 -31 30v361q0 31 31 31h917q31 0 31 -31v-162q0 -66 -59 -119l-484 -422h287v105q0 31 31 31h194q31 0 31 -31v-348q0 -31 -31 -31h-917q-31 0 -31 31z" />
<glyph unicode="{" horiz-adv-x="899" d="M51 645v129q0 15 11 26t26 11q21 2 43 12.5t45.5 32t38 62t14.5 94.5v121q0 102 29 178.5t77.5 124.5t121 78t151 41.5t176.5 11.5q15 0 26 -11t11 -26v-250q0 -15 -11 -26t-26 -11q-57 -1 -91.5 -6t-62.5 -21t-40 -46t-12 -78v-78q0 -51 -12.5 -92.5t-30 -65t-35.5 -39 t-30 -21.5l-13 -5v-160q5 -2 13 -6t29 -21t37 -40t29 -65t13 -93v-78q0 -93 46 -121.5t160 -30.5q15 0 26 -11t11 -26v-250q0 -15 -11 -25.5t-26 -10.5q-98 0 -176.5 11.5t-151 41.5t-121 78t-77.5 124.5t-29 178.5v121q0 54 -14.5 94.5t-38 61.5t-45.5 31.5t-43 12.5 q-15 0 -26 11t-11 26z" />
<glyph unicode="|" horiz-adv-x="704" d="M180 -238v1764q0 30 31 30h283q30 0 30 -30v-1764q0 -30 -30 -30h-283q-31 0 -31 30z" />
<glyph unicode="}" horiz-adv-x="899" d="M78 -111v250q0 15 11 26t26 11q57 1 91.5 6.5t63 21t40.5 46t12 78.5v78q0 51 12.5 93t30 65.5t35 39.5t30.5 22l12 5v160q-5 2 -13 5.5t-28.5 20.5t-36.5 39.5t-29 64.5t-13 93v78q0 48 -12 78t-40.5 46t-63 21t-91.5 6q-15 0 -26 11t-11 26v250q0 15 11 26t26 11 q98 0 176.5 -11.5t151 -41.5t121 -78t77.5 -124.5t29 -178.5v-121q0 -54 14.5 -94.5t38 -62t45.5 -32t43 -12.5q15 0 26 -11t11 -26v-129q0 -15 -11 -26t-26 -11q-21 -2 -43 -12.5t-45.5 -31.5t-38 -61.5t-14.5 -94.5v-121q0 -102 -29 -178.5t-77.5 -124.5t-121 -78 t-151 -41.5t-176.5 -11.5q-15 0 -26 10.5t-11 25.5z" />
<glyph unicode="&#xa1;" horiz-adv-x="665" d="M143 1083q0 79 56.5 136t136.5 57q79 0 135.5 -56.5t56.5 -136.5q0 -79 -56 -135.5t-136 -56.5t-136.5 56.5t-56.5 135.5zM160 -518l30 1192q0 31 31 31h221q31 0 31 -31l31 -1192q0 -31 -31 -31h-283q-30 0 -30 31z" />
<glyph unicode="&#xa2;" horiz-adv-x="1234" d="M84 621q0 105 34 195.5t91.5 152.5t129.5 102.5t153 56.5l2 144q-3 31 30 31h185q30 0 30 -31v-162q42 -16 74.5 -40.5t44.5 -41.5l12 -16h4l-4 80q-1 15 7.5 22.5t23.5 7.5h184q31 0 31 -30v-400q0 -30 -31 -30h-229q-31 0 -31 30v25q-3 56 -52 91.5t-126 35.5 q-83 0 -148 -57t-65 -164q0 -109 66.5 -170.5t165.5 -61.5q40 0 80 12.5t68.5 30t51 34.5t34.5 30l11 12q24 28 47 2l138 -150q22 -25 4 -49q-9 -14 -31.5 -37.5t-66 -58.5t-113.5 -65.5t-150 -42.5v-107q0 -31 -30 -31h-187q-30 0 -30 31v113q-182 40 -295 173t-113 333z " />
<glyph unicode="&#xa3;" horiz-adv-x="1437" d="M84 500v164q0 30 31 30h211q-3 4 -22.5 26t-25 28.5t-22.5 27.5t-23.5 32t-19.5 32t-18.5 37.5t-12.5 38.5t-9.5 45t-2.5 47q0 72 21.5 139t69 128.5t116 107.5t169.5 73t222 27q268 0 419.5 -148t151.5 -383v-30q0 -31 -30 -31h-305q-31 0 -31 31v30q0 88 -56.5 144.5 t-148.5 56.5t-148.5 -49.5t-56.5 -134.5q0 -41 21 -80t47.5 -65.5t62 -63.5t54.5 -66h378q31 0 31 -30v-164q0 -31 -31 -31h-362q-29 -97 -105 -160h652q30 0 30 -30v-248q0 -31 -30 -31h-1147q-31 0 -31 31v229q0 24 5.5 35.5t21.5 17.5q1 0 19 5t37 10.5t46 18t49.5 28 t44 40t33.5 54.5h-274q-31 0 -31 31z" />
<glyph unicode="&#xa4;" horiz-adv-x="1335" d="M123 711q0 233 145 372l-125 144q-10 12 -9 27t13 26l15 12q12 10 27 9t26 -13l129 -147q134 86 324 86q180 0 315 -80l125 141q11 12 26 13t27 -9l15 -12q12 -11 13 -26t-9 -27l-121 -137q153 -143 153 -379q0 -241 -149 -381l117 -131q10 -12 9 -27.5t-13 -26.5 l-15 -12q-12 -10 -27 -9t-26 13l-119 135q-133 -82 -323 -82q-194 0 -328 86l-123 -139q-11 -12 -26 -13t-27 9l-15 12q-12 11 -13 26.5t9 27.5l121 137q-141 138 -141 375zM473 713q0 -105 51 -168.5t142 -63.5q92 0 144 63.5t52 168.5q0 102 -52.5 161.5t-141.5 59.5 q-90 0 -142.5 -59.5t-52.5 -161.5z" />
<glyph unicode="&#xa5;" horiz-adv-x="1646" d="M59 1202v238q0 30 31 30h651q31 0 31 -30v-238q0 -31 -31 -31h-102l188 -319h11l182 319h-113q-30 0 -30 31v238q0 30 30 30h645q31 0 31 -30v-238q0 -31 -31 -31h-139q-35 -52 -90 -137t-78 -119h101q30 0 30 -30v-142q0 -30 -30 -30h-236l-63 -92h190q31 0 31 -31v-141 q0 -31 -31 -31h-242v-119h138q30 0 30 -31v-237q0 -31 -30 -31h-629q-31 0 -31 31v237q0 31 31 31h137v119h-233q-31 0 -31 31v141q0 31 31 31h184l-62 92h-231q-31 0 -31 30v142q0 30 31 30h96l-166 256h-139q-31 0 -31 31z" />
<glyph unicode="&#xa6;" horiz-adv-x="712" d="M184 -238v656q0 31 31 31h283q30 0 30 -31v-656q0 -30 -30 -30h-283q-31 0 -31 30zM184 870v656q0 30 31 30h283q30 0 30 -30v-656q0 -30 -30 -30h-283q-31 0 -31 30z" />
<glyph unicode="&#xa7;" horiz-adv-x="1435" d="M106 78q0 31 31 31h295q31 0 31 -31v-25q2 -8 6 -20.5t23.5 -45.5t47 -58t80.5 -45.5t119 -20.5q65 0 106.5 31t41.5 77q0 29 -25.5 51.5t-69 39.5t-100 33.5t-119 36t-125 43.5t-119 60t-100 81t-69 111t-25.5 146q0 163 70 261q-70 86 -70 200q0 199 133 324t357 125 q231 0 354 -123l-8 80q-3 30 30 30h254q31 0 31 -30v-508q0 -31 -31 -31h-294q-31 0 -31 31v33q0 66 -64.5 119t-185.5 53q-68 0 -106.5 -27.5t-38.5 -75.5q0 -35 27.5 -62.5t73.5 -47t106 -36.5t126.5 -36t133 -41.5t126.5 -57t106 -78t73.5 -109t27.5 -146.5 q0 -148 -80 -256q80 -87 80 -205q0 -66 -17.5 -127.5t-56 -118t-94.5 -98t-139.5 -66t-185.5 -24.5q-56 0 -109 8t-93.5 21t-77 28.5t-62 30.5t-44 28t-28.5 21l-10 8l4 -100q3 -31 -31 -31h-254q-31 0 -31 31v508zM504 573q0 -20 6 -37.5t21 -33t29 -28t41.5 -25.5 t46.5 -21.5t56 -21t58 -19t64.5 -20t64.5 -19.5q27 42 27 84q0 22 -11 41.5t-34 35.5t-48.5 29.5t-65 28t-72.5 25.5t-83 27t-84 28q-16 -29 -16 -74z" />
<glyph unicode="&#xa8;" horiz-adv-x="761" d="M18 1284q0 63 43.5 107.5t104.5 44.5q63 0 107 -44.5t44 -107.5t-44 -106t-107 -43q-62 0 -105 43t-43 106zM444 1284q0 63 43.5 107.5t104.5 44.5q63 0 107 -44.5t44 -107.5t-44 -106t-107 -43q-62 0 -105 43t-43 106z" />
<glyph unicode="&#xa9;" horiz-adv-x="1404" d="M94 713q0 121 49 233.5t131 194.5t194.5 131t233.5 49q162 0 302.5 -82.5t223.5 -223t83 -302.5t-83 -302.5t-223.5 -223.5t-302.5 -83t-302.5 83t-223 223.5t-82.5 302.5zM272 713q0 -179 126 -304.5t304 -125.5q179 0 305 126t126 304t-126 304t-305 126 q-178 0 -304 -125.5t-126 -304.5zM352 719q0 164 101.5 262t244.5 98q64 0 117 -18t86.5 -46.5t51.5 -50.5t28 -42q13 -17 -6 -29l-117 -86q-18 -12 -27 2q-36 70 -133 70q-54 0 -95.5 -43.5t-41.5 -114.5q0 -73 42.5 -117.5t107.5 -44.5q95 0 123 57q10 17 24 7l115 -78 q19 -12 6 -29q-8 -15 -19.5 -31.5t-36 -40.5t-53.5 -42t-74.5 -31t-97.5 -13q-143 0 -244.5 98.5t-101.5 262.5z" />
<glyph unicode="&#xaa;" horiz-adv-x="735" d="M92 1112q0 79 64 120.5t188 41.5h62v2q0 47 -74 47q-38 0 -67 -8.5t-44 -16.5t-18 -8q-12 0 -17 8l-67 93q-7 10 2 16q3 3 9 8t26.5 18.5t44 23.5t62.5 18t81 8q107 0 170.5 -52.5t63.5 -164.5v-152h47q14 0 14 -14v-113q0 -16 -14 -16h-144q-49 0 -49 51v31h-2 q-2 -4 -5.5 -10t-18 -21.5t-32 -27.5t-48 -21.5t-64.5 -9.5q-79 0 -124.5 41t-45.5 108zM279 1147q0 -35 57 -35q45 0 70 33v47h-48q-44 0 -61.5 -11t-17.5 -34z" />
<glyph unicode="&#xab;" horiz-adv-x="1292" d="M66 502v53q0 15 10.5 31.5t25.5 27.5l500 342q14 9 25.5 4t11.5 -20v-195q0 -14 -11.5 -30.5t-25.5 -26.5l-237 -160l237 -159q14 -9 25.5 -26.5t11.5 -31.5v-194q0 -15 -11.5 -20.5t-25.5 3.5l-500 342q-15 11 -25.5 28t-10.5 32zM600 502v53q0 33 37 59l500 342 q13 9 25 4t12 -20v-195q0 -14 -11.5 -30.5t-25.5 -26.5l-238 -160l238 -159q14 -9 25.5 -26.5t11.5 -31.5v-194q0 -15 -12 -20.5t-25 3.5l-500 342q-15 11 -26 28t-11 32z" />
<glyph unicode="&#xac;" horiz-adv-x="1351" d="M102 633v198q0 15 11 26t26 11h1039q15 0 25.5 -11t10.5 -26v-512q0 -30 -30 -30h-217q-31 0 -31 30v277h-797q-15 0 -26 11t-11 26z" />
<glyph unicode="&#xad;" horiz-adv-x="1013" d="M123 420v250q0 15 11 26t26 11h694q15 0 26 -11t11 -26v-250q0 -15 -11 -26t-26 -11h-694q-15 0 -26 11t-11 26z" />
<glyph unicode="&#xae;" horiz-adv-x="1404" d="M94 713q0 121 49 233.5t131 194.5t194.5 131t233.5 49q162 0 302.5 -82.5t223.5 -223t83 -302.5t-83 -302.5t-223.5 -223.5t-302.5 -83t-302.5 83t-223 223.5t-82.5 302.5zM250 713q0 -188 132.5 -320.5t319.5 -132.5t319 132.5t132 320.5q0 187 -131.5 318.5 t-319.5 131.5t-320 -131.5t-132 -318.5zM436 379v143q0 10 10 10h31v379h-31q-10 0 -10 13v143q0 10 10 10h291q108 0 171 -61.5t63 -169.5q0 -74 -34.5 -124.5t-98.5 -72.5q10 -14 18 -26l53 -91h76q10 0 10 -10v-143q0 -12 -10 -12h-137q-31 0 -53 45l-105 192 q-9 17 -16 23t-19 8h-8v-103h47q13 0 13 -10v-143q0 -12 -13 -12h-248q-10 0 -10 12zM647 780h84q62 0 62 66q0 65 -62 65h-84v-131z" />
<glyph unicode="&#xaf;" horiz-adv-x="849" d="M51 1159v199q0 15 11 26t26 11h674q15 0 26 -11t11 -26v-199q0 -15 -11 -26t-26 -11h-674q-15 0 -26 11t-11 26z" />
<glyph unicode="&#xb0;" horiz-adv-x="522" d="M104 1016q0 70 45.5 117t110.5 47q66 0 112 -47t46 -117q0 -81 -45.5 -124.5t-112.5 -43.5q-66 0 -111 43.5t-45 124.5zM211 1016q0 -28 14.5 -43t34.5 -15q22 0 36.5 15t14.5 43q0 24 -14.5 38.5t-36.5 14.5q-21 0 -35 -14.5t-14 -38.5z" />
<glyph unicode="&#xb1;" horiz-adv-x="1161" d="M119 59v250q0 15 11 26t26 11h850q15 0 25.5 -11t10.5 -26v-250q0 -15 -10.5 -25.5t-25.5 -10.5h-850q-15 0 -26 10.5t-11 25.5zM119 764v250q0 15 11 26t26 11h258v274q0 31 30 31h283q31 0 31 -31v-274h248q15 0 25.5 -11t10.5 -26v-250q0 -15 -10.5 -26t-25.5 -11 h-248v-260q0 -31 -31 -31h-283q-30 0 -30 31v260h-258q-15 0 -26 11t-11 26z" />
<glyph unicode="&#xb2;" horiz-adv-x="839" d="M119 754v80q2 64 23.5 113t55.5 78.5t74.5 51.5t80.5 37t73 29t53.5 34t20.5 46q0 82 -94 82q-49 0 -76 -29.5t-27 -75.5q0 -14 -16 -14h-152q-16 0 -16 14q0 120 77 200.5t210 80.5q146 0 222.5 -70.5t76.5 -167.5q0 -58 -23 -102.5t-58 -69.5t-78 -47t-82 -36.5 t-71.5 -36.5t-44.5 -48h191v55q0 15 16 15h152q16 0 16 -15v-204q0 -15 -16 -15h-572q-16 0 -16 15z" />
<glyph unicode="&#xb3;" horiz-adv-x="768" d="M90 864q-14 10 0 21l109 100q12 9 20 -2q72 -72 156 -72q43 0 70.5 15t27.5 47q0 57 -96 57h-64q-14 0 -14 14v111q0 16 14 16h41q99 0 99 68q0 29 -19 47.5t-59 18.5q-82 0 -82 -68q0 -16 -14 -16h-152q-16 0 -16 16q0 117 65.5 180.5t200.5 63.5q72 0 128.5 -20.5 t87.5 -52.5t46.5 -66.5t15.5 -67.5q0 -36 -10.5 -66t-25 -47.5t-29 -30t-24.5 -17.5l-11 -5l12 -5q12 -5 28.5 -16t33.5 -28.5t29 -48.5t12 -70q0 -90 -81.5 -148.5t-213.5 -58.5q-48 0 -90 9t-67.5 19t-53 31.5t-36.5 30.5t-30 32l-3 3t-2.5 3t-2.5 3z" />
<glyph unicode="&#xb4;" horiz-adv-x="724" d="M52.5 1293q1.5 15 13.5 26l397 360q12 9 27.5 7.5t25.5 -13.5l150 -178q9 -12 8 -27t-12 -24l-429 -326q-12 -9 -27.5 -7.5t-25.5 13.5l-119 142q-10 12 -8.5 27z" />
<glyph unicode="&#xb5;" horiz-adv-x="1280" d="M53 764v213q0 31 31 31h336q47 0 73.5 -27t26.5 -74v-438q0 -35 2 -58.5t9.5 -48t21 -39t37 -23.5t57.5 -9q33 0 58 12.5t36 31t16 32t5 22.5v344h-74q-31 0 -31 31v213q0 31 31 31h387q31 0 31 -31v-703h90q31 0 31 -30v-213q0 -31 -31 -31h-285q-47 0 -73.5 26.5 t-26.5 73.5v58h-6q-1 -7 -5 -18.5t-22.5 -41t-45 -52.5t-78.5 -41.5t-117 -18.5h-17v-418q0 -31 -31 -31h-282q-31 0 -31 31v1165h-92q-31 0 -31 31z" />
<glyph unicode="&#xb6;" horiz-adv-x="1726" d="M66 969q0 123 36.5 219.5t101.5 157.5t152 92.5t191 31.5h1009q31 0 31 -30v-248q0 -31 -31 -31h-49v-1290q0 -31 -30 -31h-301q-31 0 -31 31v1290h-133v-1290q0 -31 -31 -31h-301q-31 0 -31 31v612h-82q-231 0 -366 121.5t-135 364.5z" />
<glyph unicode="&#xb7;" horiz-adv-x="526" d="M113 645q0 63 43 107.5t106 44.5t107.5 -44.5t44.5 -107.5t-44.5 -106t-107.5 -43t-106 43t-43 106z" />
<glyph unicode="&#xb8;" horiz-adv-x="518" d="M53 -247.5q-3 14.5 6 28.5l29 39q9 12 24 14t29 -8q11 -7 41 -18t60 -11q57 0 57 37q0 24 -12.5 34.5t-48.5 10.5q-41 0 -54 7t-4 32l45 121h131l-26 -78q10 0 22.5 -1.5t34 -8.5t38.5 -19.5t29.5 -38t12.5 -59.5q0 -78 -53 -125t-140 -47q-55 0 -106.5 17t-75.5 34 l-24 17q-12 8 -15 22.5z" />
<glyph unicode="&#xb9;" horiz-adv-x="718" d="M100 1311q-8 11 4 20l205 142q4 4 19 4h155q15 0 15 -17v-555h118q17 0 17 -14v-135q0 -15 -17 -15h-471q-16 0 -16 15v135q0 14 16 14h154v363l-102 -70q-12 -8 -21 4z" />
<glyph unicode="&#xba;" horiz-adv-x="657" d="M82 1227q0 118 72.5 187t175.5 69t174 -69.5t71 -186.5t-71 -189.5t-174 -72.5t-175.5 72t-72.5 190zM231 1225q0 -50 29 -79.5t70 -29.5q40 0 67 29t27 80q0 50 -28 79t-66 29q-40 0 -69.5 -29t-29.5 -79z" />
<glyph unicode="&#xbb;" horiz-adv-x="1292" d="M119 117v194q0 14 11.5 31.5t25.5 26.5l237 159l-237 160q-14 10 -25.5 26.5t-11.5 30.5v195q0 15 11.5 20t25.5 -4l499 -342q37 -26 37 -59v-53q0 -15 -11 -32t-26 -28l-499 -342q-14 -9 -25.5 -3.5t-11.5 20.5zM653 117v194q0 14 11.5 31.5t25.5 26.5l238 159l-238 160 q-14 10 -25.5 26.5t-11.5 30.5v195q0 15 11.5 20t25.5 -4l500 -342q37 -26 37 -59v-53q0 -15 -11 -32t-26 -28l-500 -342q-14 -9 -25.5 -3.5t-11.5 20.5z" />
<glyph unicode="&#xbc;" horiz-adv-x="1529" d="M31 1311q-8 11 4 20l205 142q4 4 18 4h156q14 0 14 -17v-555h119q16 0 16 -14v-135q0 -15 -16 -15h-471q-17 0 -17 15v135q0 14 17 14h153v363l-102 -70q-12 -8 -21 4zM401 -121l473 1647q9 30 39 30h191q14 0 21 -8t1 -22l-473 -1647q-9 -31 -39 -31h-190q-14 0 -20.5 8 t-2.5 23zM885 236v90q0 24 18 47l309 358q2 4 13 4h164q16 0 16 -14v-350h68q16 0 16 -17v-118q0 -15 -16 -15h-68v-57h68q7 0 11.5 -4.5t4.5 -9.5v-134q0 -16 -16 -16h-420q-17 0 -17 16v134q0 14 17 14h153v57h-305q-16 0 -16 15zM1075 344h131v158z" />
<glyph unicode="&#xbd;" horiz-adv-x="1652" d="M68 1311q-8 11 4 20l204 142q4 4 19 4h156q14 0 14 -17v-555h119q16 0 16 -14v-135q0 -15 -16 -15h-471q-17 0 -17 15v135q0 14 17 14h153v363l-102 -70q-12 -8 -21 4zM438 -121l473 1647q9 30 39 30h191q14 0 21 -8t1 -22l-473 -1647q-9 -31 -39 -31h-190q-14 0 -20.5 8 t-2.5 23zM979 14v80q2 64 23.5 113t55.5 78.5t74.5 51.5t80.5 37t73 29t53.5 34t20.5 46q0 82 -94 82q-49 0 -76 -29t-27 -75q0 -15 -16 -15h-152q-16 0 -16 15q0 120 77 200t210 80q147 0 223 -70t76 -167q0 -58 -23 -102.5t-58 -69.5t-78 -47t-82 -36.5t-71.5 -36.5 t-44.5 -48h191v55q0 14 16 14h152q16 0 16 -14v-205q0 -14 -16 -14h-572q-16 0 -16 14z" />
<glyph unicode="&#xbe;" horiz-adv-x="1593" d="M23 864q-14 10 0 21l108 100q12 9 21 -2q72 -72 155 -72q43 0 71 15t28 47q0 57 -97 57h-63q-15 0 -15 14v111q0 16 15 16h41q98 0 98 68q0 29 -19 47.5t-59 18.5q-82 0 -82 -68q0 -16 -14 -16h-152q-16 0 -16 16q0 117 65.5 180.5t200.5 63.5q72 0 128.5 -20.5t88 -52.5 t47 -66.5t15.5 -67.5q0 -36 -10.5 -66t-25 -47.5t-29.5 -30t-25 -17.5l-11 -5l12 -5q12 -5 28.5 -16t33.5 -28.5t29 -48.5t12 -70q0 -90 -81.5 -148.5t-213.5 -58.5q-26 0 -50.5 3t-44 6t-39 11t-32.5 13t-28.5 16t-23.5 16t-21 18t-16.5 17t-15.5 17t-13 14zM463 -121 l473 1647q9 30 39 30h190q15 0 22 -8t1 -22l-473 -1647q-9 -31 -39 -31h-191q-31 0 -22 31zM946 236v90q0 23 19 47l309 358q2 4 12 4h164q16 0 16 -14v-350h68q16 0 16 -17v-118q0 -15 -16 -15h-68v-57h68q7 0 11.5 -4.5t4.5 -9.5v-134q0 -16 -16 -16h-420q-16 0 -16 16 v134q0 14 16 14h154v57h-305q-17 0 -17 15zM1137 344h131v158z" />
<glyph unicode="&#xbf;" horiz-adv-x="1200" d="M57 -244q0 87 25 157t65 116t88 84.5t96.5 71.5t88.5 68.5t65 85t25 110.5q0 30 31 30h282q17 0 24 -6.5t7 -23.5q0 -102 -23 -183t-59.5 -132t-80.5 -91t-88 -69t-80.5 -56.5t-59.5 -63t-23 -79.5q0 -80 42.5 -127t111.5 -47q194 0 194 241q0 31 31 31h295q31 0 31 -31 q0 -571 -551 -571q-135 0 -241 42t-169 112t-95 154.5t-32 176.5zM457 829q0 88 61.5 149.5t149.5 61.5t149.5 -61.5t61.5 -149.5t-61.5 -149.5t-149.5 -61.5t-149.5 61.5t-61.5 149.5z" />
<glyph unicode="&#xc0;" horiz-adv-x="1511" d="M6 31v237q0 31 31 31h135l332 872h-158q-31 0 -31 31v238q0 30 31 30h469q70 0 105 -29.5t65 -107.5l395 -1034h133q31 0 31 -31v-237q0 -31 -31 -31h-614q-31 0 -31 31v237q0 31 31 31h129l-49 139h-410l-49 -139h131q31 0 31 -31v-237q0 -31 -31 -31h-614q-31 0 -31 31 zM334 1933q-1 15 8 27l150 178q11 12 26.5 14t26.5 -8l397 -360q12 -11 13 -26t-9 -27l-119 -142q-10 -12 -25.5 -13.5t-27.5 7.5l-428 326q-11 9 -12 24zM662 678h229l-111 319h-10z" />
<glyph unicode="&#xc1;" horiz-adv-x="1511" d="M6 31v237q0 31 31 31h135l332 872h-158q-31 0 -31 31v238q0 30 31 30h469q70 0 105 -29.5t65 -107.5l395 -1034h133q31 0 31 -31v-237q0 -31 -31 -31h-614q-31 0 -31 31v237q0 31 31 31h129l-49 139h-410l-49 -139h131q31 0 31 -31v-237q0 -31 -31 -31h-614q-31 0 -31 31 zM630 1756q1 15 13 26l397 360q12 9 28 7.5t26 -13.5l149 -178q9 -12 8 -27t-12 -24l-428 -326q-12 -9 -27.5 -7.5t-25.5 13.5l-119 142q-10 12 -9 27zM662 678h229l-111 319h-10z" />
<glyph unicode="&#xc2;" horiz-adv-x="1511" d="M6 31v237q0 31 31 31h135l332 872h-158q-31 0 -31 31v238q0 30 31 30h469q70 0 105 -29.5t65 -107.5l395 -1034h133q31 0 31 -31v-237q0 -31 -31 -31h-614q-31 0 -31 31v237q0 31 31 31h129l-49 139h-410l-49 -139h131q31 0 31 -31v-237q0 -31 -31 -31h-614q-31 0 -31 31 zM346 1756q1 15 12 26l367 332q8 8 23 8q12 0 28 -13l363 -327q11 -11 12 -26t-8 -27l-117 -138q-9 -12 -24 -13t-27 9l-227 207l-226 -207q-11 -10 -26.5 -9t-24.5 13l-117 138q-9 12 -8 27zM662 678h229l-111 319h-10z" />
<glyph unicode="&#xc3;" horiz-adv-x="1511" d="M6 31v237q0 31 31 31h135l332 872h-158q-31 0 -31 31v238q0 30 31 30h469q70 0 105 -29.5t65 -107.5l395 -1034h133q31 0 31 -31v-237q0 -31 -31 -31h-614q-31 0 -31 31v237q0 31 31 31h129l-49 139h-410l-49 -139h131q31 0 31 -31v-237q0 -31 -31 -31h-614q-31 0 -31 31 zM330 1612q0 143 60 227t181 84q50 0 92.5 -15.5t70 -37.5t51.5 -44t50 -37.5t52 -16.5q39 0 59.5 28.5t20.5 106.5q0 30 30 30h115q31 0 31 -30q0 -147 -60 -230.5t-182 -83.5q-60 0 -110 22t-77.5 48t-61.5 48t-66 22q-40 0 -60 -24t-20 -97q0 -31 -31 -31h-115 q-30 0 -30 31zM662 678h229l-111 319h-10z" />
<glyph unicode="&#xc4;" horiz-adv-x="1511" d="M6 31v237q0 31 31 31h135l332 872h-158q-31 0 -31 31v238q0 30 31 30h469q70 0 105 -29.5t65 -107.5l395 -1034h133q31 0 31 -31v-237q0 -31 -31 -31h-614q-31 0 -31 31v237q0 31 31 31h129l-49 139h-410l-49 -139h131q31 0 31 -31v-237q0 -31 -31 -31h-614q-31 0 -31 31 zM391 1747q0 63 43 107t105 44q63 0 107 -44t44 -107t-44 -106.5t-107 -43.5q-62 0 -105 43.5t-43 106.5zM662 678h229l-111 319h-10zM817 1747q0 63 43 107t105 44q63 0 107 -44t44 -107t-44 -106.5t-107 -43.5q-62 0 -105 43.5t-43 106.5z" />
<glyph unicode="&#xc5;" horiz-adv-x="1511" d="M6 31v237q0 31 31 31h135l332 872h-158q-31 0 -31 31v238q0 30 31 30h469q70 0 105 -29.5t65 -107.5l395 -1034h133q31 0 31 -31v-237q0 -31 -31 -31h-614q-31 0 -31 31v237q0 31 31 31h129l-49 139h-410l-49 -139h131q31 0 31 -31v-237q0 -31 -31 -31h-614q-31 0 -31 31 zM586 1757q0 72 50 124t122 52t122 -52t50 -124t-50 -124t-122 -52t-122 52t-50 124zM662 678h229l-111 319h-10zM705 1757q0 -24 15 -40.5t38 -16.5t38 16.5t15 40.5t-15 41t-38 17t-38 -17t-15 -41z" />
<glyph unicode="&#xc6;" horiz-adv-x="2181" d="M-4 31v237q0 31 31 31h131l331 872h-153q-31 0 -31 31v238q0 30 31 30h1726q31 0 31 -30v-463q0 -31 -31 -31h-268q-31 0 -31 31v194h-395v-282h320q30 0 30 -31v-237q0 -31 -30 -31h-320v-291h393v195q0 30 31 30h270q31 0 31 -30v-463q0 -31 -31 -31h-1177 q-31 0 -31 31v237q0 31 31 31h131v291h-404l-102 -291h131q31 0 31 -31v-237q0 -31 -31 -31h-614q-31 0 -31 31zM729 889h287v282h-178z" />
<glyph unicode="&#xc7;" horiz-adv-x="1572" d="M74 743q0 145 39.5 267.5t107 208.5t158.5 146.5t194 89t213 28.5q262 0 373 -152l-6 109q-1 15 7 22.5t24 7.5h254q30 0 30 -30v-518q0 -31 -30 -31h-295q-31 0 -31 31v20q0 30 -20 65t-56 66.5t-95 52.5t-128 21q-161 0 -259.5 -109t-98.5 -301q0 -92 32 -171 t86 -131.5t124 -82.5t145 -30q274 0 405 241q3 4 4 6q16 28 41 9l207 -142q21 -16 8 -45q-102 -230 -334 -334q-133 -60 -299 -69l-8 -27q10 0 22.5 -1.5t34.5 -8.5t38.5 -19.5t29.5 -38t13 -59.5q0 -78 -53 -125t-140 -47q-55 0 -106.5 17t-76.5 34l-24 17 q-12 8 -14.5 22.5t6.5 28.5l29 39q9 12 24 14t29 -8q11 -7 40.5 -18t59.5 -11q58 0 58 37q0 23 -13 34t-49 11q-41 0 -53.5 7t-3.5 32l26 72q-140 11 -261 66.5t-212.5 149.5t-143.5 232.5t-52 304.5z" />
<glyph unicode="&#xc8;" horiz-adv-x="1443" d="M90 31v237q0 31 31 31h131v872h-131q-31 0 -31 31v238q0 30 31 30h1177q31 0 31 -30v-463q0 -31 -31 -31h-268q-31 0 -31 31v194h-395v-282h320q30 0 30 -31v-237q0 -31 -30 -31h-320v-291h393v195q0 30 31 30h268q31 0 31 -30v-463q0 -31 -31 -31h-1175q-31 0 -31 31z M326 1933q-1 15 8 27l149 178q11 12 27 14t27 -8l397 -360q12 -11 13 -26t-9 -27l-119 -142q-10 -12 -25.5 -13.5t-27.5 7.5l-428 326q-11 9 -12 24z" />
<glyph unicode="&#xc9;" horiz-adv-x="1443" d="M90 31v237q0 31 31 31h131v872h-131q-31 0 -31 31v238q0 30 31 30h1177q31 0 31 -30v-463q0 -31 -31 -31h-268q-31 0 -31 31v194h-395v-282h320q30 0 30 -31v-237q0 -31 -30 -31h-320v-291h393v195q0 30 31 30h268q31 0 31 -30v-463q0 -31 -31 -31h-1175q-31 0 -31 31z M552 1756q1 15 13 26l398 360q12 9 27.5 7.5t25.5 -13.5l149 -178q9 -12 8 -27t-12 -24l-428 -326q-12 -9 -27.5 -7.5t-25.5 13.5l-119 142q-10 12 -9 27z" />
<glyph unicode="&#xca;" horiz-adv-x="1443" d="M90 31v237q0 31 31 31h131v872h-131q-31 0 -31 31v238q0 30 31 30h1177q31 0 31 -30v-463q0 -31 -31 -31h-268q-31 0 -31 31v194h-395v-282h320q30 0 30 -31v-237q0 -31 -30 -31h-320v-291h393v195q0 30 31 30h268q31 0 31 -30v-463q0 -31 -31 -31h-1175q-31 0 -31 31z M281 1756q1 15 12 26l366 332q8 8 23 8q13 0 29 -13l362 -327q11 -11 12 -26t-8 -27l-116 -138q-9 -12 -24.5 -13t-27.5 9l-227 207l-225 -207q-11 -10 -26.5 -9t-24.5 13l-117 138q-9 12 -8 27z" />
<glyph unicode="&#xcb;" horiz-adv-x="1443" d="M90 31v237q0 31 31 31h131v872h-131q-31 0 -31 31v238q0 30 31 30h1177q31 0 31 -30v-463q0 -31 -31 -31h-268q-31 0 -31 31v194h-395v-282h320q30 0 30 -31v-237q0 -31 -30 -31h-320v-291h393v195q0 30 31 30h268q31 0 31 -30v-463q0 -31 -31 -31h-1175q-31 0 -31 31z M416 1747q0 63 43 107t104 44q63 0 107.5 -44t44.5 -107t-44.5 -106.5t-107.5 -43.5q-62 0 -104.5 43.5t-42.5 106.5zM842 1747q0 63 43 107t104 44q63 0 107.5 -44t44.5 -107t-44.5 -106.5t-107.5 -43.5q-62 0 -104.5 43.5t-42.5 106.5z" />
<glyph unicode="&#xcc;" horiz-adv-x="856" d="M-8 1933q-1 15 8 27l150 178q11 12 26.5 14t26.5 -8l397 -360q12 -11 13 -26t-9 -27l-119 -142q-10 -12 -25.5 -13.5t-27.5 7.5l-428 326q-11 9 -12 24zM88 31v237q0 31 31 31h131v872h-131q-31 0 -31 31v238q0 30 31 30h614q31 0 31 -30v-238q0 -31 -31 -31h-131v-872 h131q31 0 31 -31v-237q0 -31 -31 -31h-614q-31 0 -31 31z" />
<glyph unicode="&#xcd;" horiz-adv-x="856" d="M90 31v237q0 31 31 31h131v872h-131q-31 0 -31 31v238q0 30 31 30h614q31 0 31 -30v-238q0 -31 -31 -31h-131v-872h131q31 0 31 -31v-237q0 -31 -31 -31h-614q-31 0 -31 31zM290 1756q1 15 13 26l397 360q12 9 28 7.5t26 -13.5l149 -178q9 -12 8 -27t-12 -24l-428 -326 q-12 -9 -27.5 -7.5t-25.5 13.5l-119 142q-10 12 -9 27z" />
<glyph unicode="&#xce;" horiz-adv-x="856" d="M41 1756q1 15 12 26l367 332q8 8 22 8q13 0 29 -13l363 -327q11 -11 12 -26t-8 -27l-117 -138q-9 -12 -24 -13t-27 9l-228 207l-225 -207q-11 -10 -26.5 -9t-24.5 13l-117 138q-9 12 -8 27zM90 31v237q0 31 31 31h131v872h-131q-31 0 -31 31v238q0 30 31 30h614 q31 0 31 -30v-238q0 -31 -31 -31h-131v-872h131q31 0 31 -31v-237q0 -31 -31 -31h-614q-31 0 -31 31z" />
<glyph unicode="&#xcf;" horiz-adv-x="856" d="M86 1747q0 63 43 107t104 44q63 0 107.5 -44t44.5 -107t-44.5 -106.5t-107.5 -43.5q-62 0 -104.5 43.5t-42.5 106.5zM90 31v237q0 31 31 31h131v872h-131q-31 0 -31 31v238q0 30 31 30h614q31 0 31 -30v-238q0 -31 -31 -31h-131v-872h131q31 0 31 -31v-237q0 -31 -31 -31 h-614q-31 0 -31 31zM512 1747q0 63 43 107t104 44q63 0 107.5 -44t44.5 -107t-44.5 -106.5t-107.5 -43.5q-62 0 -104.5 43.5t-42.5 106.5z" />
<glyph unicode="&#xd0;" horiz-adv-x="1521" d="M90 31v237q0 31 31 31h131v285h-125q-15 0 -26 11t-11 26v198q0 15 11 26t26 11h125v315h-131q-31 0 -31 31v238q0 30 31 30h567q118 0 229 -30.5t208 -93.5t169.5 -151.5t114 -212t41.5 -267.5q0 -162 -55 -299t-146 -226.5t-206.5 -139.5t-239.5 -50h-682q-31 0 -31 31 zM604 299h53q101 2 174.5 22t130.5 66t85 127t28 197q0 460 -444 460h-27v-315h182q15 0 26 -11t11 -26v-198q0 -15 -11 -26t-26 -11h-182v-285z" />
<glyph unicode="&#xd1;" horiz-adv-x="1656" d="M90 31v237q0 31 31 31h131v862h-131q-31 0 -31 31v248q0 30 31 30h391q28 0 49 -7.5t40.5 -28.5t27.5 -32.5t30 -45.5l314 -502q24 -41 50.5 -96t40.5 -90l15 -35h8v538h-131q-30 0 -30 31v238q0 30 30 30h615q31 0 31 -30v-238q0 -31 -31 -31h-131v-1140q0 -31 -31 -31 h-242q-50 0 -81.5 24.5t-63.5 73.5l-344 547q-16 24 -33 56.5t-26 53.5l-9 21h-6v-477h131q31 0 31 -31v-237q0 -31 -31 -31h-614q-31 0 -31 31zM436 1612q0 143 60.5 227t181.5 84q50 0 92 -15.5t70 -37.5t51.5 -44t49.5 -37.5t52 -16.5q39 0 59.5 28.5t20.5 106.5 q0 30 31 30h115q30 0 30 -30q0 -147 -59.5 -230.5t-181.5 -83.5q-49 0 -91 14.5t-70 35t-52 41t-50 35t-53 14.5q-40 0 -60 -24t-20 -97q0 -31 -30 -31h-115q-31 0 -31 31z" />
<glyph unicode="&#xd2;" d="M72 743q0 145 43 268t115.5 208.5t168.5 146t202 89t216 28.5t216 -28.5t202 -89t169 -146t116 -208.5t43 -268q0 -231 -99.5 -404.5t-267.5 -263t-379 -89.5q-156 0 -293.5 56.5t-237 155t-157 240.5t-57.5 305zM346 1933q-1 15 8 27l150 178q11 12 26.5 14t26.5 -8 l397 -360q12 -11 13 -26t-9 -27l-118 -142q-10 -12 -26 -13.5t-28 7.5l-428 326q-11 9 -12 24zM453 737q0 -176 103 -297t261 -121t261.5 121t103.5 297q0 187 -103 299.5t-264 112.5q-159 0 -260.5 -112.5t-101.5 -299.5z" />
<glyph unicode="&#xd3;" d="M72 743q0 145 43 268t115.5 208.5t168.5 146t202 89t216 28.5t216 -28.5t202 -89t169 -146t116 -208.5t43 -268q0 -231 -99.5 -404.5t-267.5 -263t-379 -89.5q-156 0 -293.5 56.5t-237 155t-157 240.5t-57.5 305zM453 737q0 -176 103 -297t261 -121t261.5 121t103.5 297 q0 187 -103 299.5t-264 112.5q-159 0 -260.5 -112.5t-101.5 -299.5zM501 1756q1 15 13 26l397 360q12 9 28 7.5t26 -13.5l149 -178q9 -12 8 -27t-12 -24l-428 -326q-12 -9 -27.5 -7.5t-25.5 13.5l-119 142q-10 12 -9 27z" />
<glyph unicode="&#xd4;" d="M72 743q0 145 43 268t115.5 208.5t168.5 146t202 89t216 28.5t216 -28.5t202 -89t169 -146t116 -208.5t43 -268q0 -231 -99.5 -404.5t-267.5 -263t-379 -89.5q-156 0 -293.5 56.5t-237 155t-157 240.5t-57.5 305zM426 1756q1 15 12 26l367 332q8 8 22 8q13 0 29 -13 l363 -327q11 -11 12 -26t-8 -27l-117 -138q-9 -12 -24 -13t-27 9l-228 207l-225 -207q-11 -10 -26.5 -9t-24.5 13l-117 138q-9 12 -8 27zM453 737q0 -176 103 -297t261 -121t261.5 121t103.5 297q0 187 -103 299.5t-264 112.5q-159 0 -260.5 -112.5t-101.5 -299.5z" />
<glyph unicode="&#xd5;" d="M72 743q0 145 43 268t115.5 208.5t168.5 146t202 89t216 28.5t216 -28.5t202 -89t169 -146t116 -208.5t43 -268q0 -231 -99.5 -404.5t-267.5 -263t-379 -89.5q-156 0 -293.5 56.5t-237 155t-157 240.5t-57.5 305zM453 737q0 -176 103 -297t261 -121t261.5 121t103.5 297 q0 187 -103 299.5t-264 112.5q-159 0 -260.5 -112.5t-101.5 -299.5zM465 1612q0 143 60.5 227t181.5 84q50 0 92 -15.5t70 -37.5t51.5 -44t49.5 -37.5t52 -16.5q39 0 59.5 28.5t20.5 106.5q0 30 31 30h114q31 0 31 -30q0 -147 -60 -230.5t-182 -83.5q-60 0 -110 22t-77.5 48 t-61.5 48t-66 22q-40 0 -60 -24t-20 -97q0 -31 -31 -31h-114q-31 0 -31 31z" />
<glyph unicode="&#xd6;" d="M72 743q0 145 43 268t115.5 208.5t168.5 146t202 89t216 28.5t216 -28.5t202 -89t169 -146t116 -208.5t43 -268q0 -231 -99.5 -404.5t-267.5 -263t-379 -89.5q-156 0 -293.5 56.5t-237 155t-157 240.5t-57.5 305zM453 737q0 -176 103 -297t261 -121t261.5 121t103.5 297 q0 187 -103 299.5t-264 112.5q-159 0 -260.5 -112.5t-101.5 -299.5zM469 1747q0 63 43 107t104 44q63 0 107.5 -44t44.5 -107t-44.5 -106.5t-107.5 -43.5q-62 0 -104.5 43.5t-42.5 106.5zM895 1747q0 63 43 107t104 44q63 0 107.5 -44t44.5 -107t-44.5 -106.5t-107.5 -43.5 q-62 0 -104.5 43.5t-42.5 106.5z" />
<glyph unicode="&#xd7;" horiz-adv-x="1040" d="M109 399q-21 24 0 45l178 179l-162 163q-10 11 -9.5 25t9.5 25l178 178q11 10 25.5 9.5t25.5 -11.5l160 -162l156 156q24 24 45 2l198 -199q21 -21 0 -43l-155 -156l174 -174q22 -29 0 -51l-180 -178q-9 -9 -24 -9.5t-26 9.5l-170 172l-180 -178q-24 -21 -45 0z" />
<glyph unicode="&#xd8;" d="M72 743q0 145 43 268t115.5 208.5t168.5 146t202 89t216 28.5q62 0 111 -8l26 90q9 30 39 30h150q14 0 21 -8t1 -22l-41 -144q93 -39 171 -99.5t139 -143.5t95 -194.5t34 -240.5q0 -231 -99.5 -404.5t-267.5 -263t-379 -89.5q-51 0 -104 6l-21 -74q-9 -31 -39 -31h-149 q-14 0 -20.5 8t-2.5 23l35 125q-202 85 -323 270.5t-121 429.5zM453 737q0 -112 42.5 -204t118.5 -148l220 764h-19q-159 0 -260.5 -112.5t-101.5 -299.5zM807 322h10q158 0 261.5 120t103.5 295q0 115 -41 203.5t-115 142.5z" />
<glyph unicode="&#xd9;" horiz-adv-x="1544" d="M27 1202v238q0 30 30 30h615q30 0 30 -30v-238q0 -31 -30 -31h-131v-630q0 -40 10 -75t34.5 -69t73 -54.5t117.5 -20.5q104 0 166 61t62 147v641h-132q-30 0 -30 31v238q0 30 30 30h615q31 0 31 -30v-238q0 -31 -31 -31h-131v-622q0 -273 -158 -418t-422 -145 q-174 0 -304.5 61.5t-207 190t-76.5 311.5v622h-131q-30 0 -30 31zM475 1933q-1 15 8 27l150 178q11 12 26.5 14t26.5 -8l397 -360q12 -11 13 -26t-9 -27l-118 -142q-10 -12 -26 -13.5t-28 7.5l-428 326q-11 9 -12 24z" />
<glyph unicode="&#xda;" horiz-adv-x="1544" d="M27 1202v238q0 30 30 30h615q30 0 30 -30v-238q0 -31 -30 -31h-131v-630q0 -40 10 -75t34.5 -69t73 -54.5t117.5 -20.5q104 0 166 61t62 147v641h-132q-30 0 -30 31v238q0 30 30 30h615q31 0 31 -30v-238q0 -31 -31 -31h-131v-622q0 -273 -158 -418t-422 -145 q-174 0 -304.5 61.5t-207 190t-76.5 311.5v622h-131q-30 0 -30 31zM526 1756q1 15 13 26l397 360q12 9 27.5 7.5t25.5 -13.5l150 -178q9 -12 8 -27t-12 -24l-428 -326q-12 -9 -28 -7.5t-26 13.5l-118 142q-10 12 -9 27z" />
<glyph unicode="&#xdb;" horiz-adv-x="1544" d="M27 1202v238q0 30 30 30h615q30 0 30 -30v-238q0 -31 -30 -31h-131v-630q0 -40 10 -75t34.5 -69t73 -54.5t117.5 -20.5q104 0 166 61t62 147v641h-132q-30 0 -30 31v238q0 30 30 30h615q31 0 31 -30v-238q0 -31 -31 -31h-131v-622q0 -273 -158 -418t-422 -145 q-174 0 -304.5 61.5t-207 190t-76.5 311.5v622h-131q-30 0 -30 31zM377 1756q1 15 12 26l367 332q8 8 22 8q13 0 29 -13l362 -327q11 -11 12.5 -26t-7.5 -27l-117 -138q-9 -12 -24 -13t-27 9l-228 207l-225 -207q-11 -10 -26.5 -9t-24.5 13l-117 138q-9 12 -8 27z" />
<glyph unicode="&#xdc;" horiz-adv-x="1544" d="M27 1202v238q0 30 30 30h615q30 0 30 -30v-238q0 -31 -30 -31h-131v-630q0 -40 10 -75t34.5 -69t73 -54.5t117.5 -20.5q104 0 166 61t62 147v641h-132q-30 0 -30 31v238q0 30 30 30h615q31 0 31 -30v-238q0 -31 -31 -31h-131v-622q0 -273 -158 -418t-422 -145 q-174 0 -304.5 61.5t-207 190t-76.5 311.5v622h-131q-30 0 -30 31zM406 1747q0 63 43 107t104 44q63 0 107.5 -44t44.5 -107t-44.5 -106.5t-107.5 -43.5q-62 0 -104.5 43.5t-42.5 106.5zM831 1747q0 63 43 107t105 44q63 0 107 -44t44 -107t-44 -106.5t-107 -43.5 q-62 0 -105 43.5t-43 106.5z" />
<glyph unicode="&#xdd;" horiz-adv-x="1480" d="M-20 1202v238q0 30 30 30h652q30 0 30 -30v-238q0 -31 -30 -31h-103l189 -319h10l182 319h-113q-30 0 -30 31v238q0 30 30 30h646q30 0 30 -30v-238q0 -31 -30 -31h-140q-316 -486 -418 -616v-256h138q30 0 30 -31v-237q0 -31 -30 -31h-629q-31 0 -31 31v237q0 31 31 31 h137v256q-60 77 -411 616h-140q-30 0 -30 31zM411 1756q1 15 13 26l397 360q12 9 27.5 7.5t25.5 -13.5l150 -178q9 -12 8 -27t-12 -24l-428 -326q-12 -9 -27.5 -7.5t-25.5 13.5l-119 142q-10 12 -9 27z" />
<glyph unicode="&#xde;" horiz-adv-x="1308" d="M109 31v213q0 30 30 30h92v922h-79q-31 0 -31 31v213q0 30 31 30h383q30 0 30 -30v-244h193q243 0 378.5 -117.5t135.5 -328.5q0 -210 -138 -317t-405 -107h-180v-52h147q31 0 31 -30v-213q0 -31 -31 -31h-557q-30 0 -30 31zM553 600h207q74 0 114.5 38.5t40.5 111.5 t-40.5 110t-114.5 37h-207v-297z" />
<glyph unicode="&#xdf;" horiz-adv-x="1515" d="M51 31v213q0 30 31 30h90v689q0 243 147 381.5t392 138.5q116 0 207 -29t142.5 -76t78 -100t26.5 -107q0 -62 -23 -112.5t-55.5 -82t-65.5 -58t-56 -53.5t-23 -54q0 -28 30.5 -52t79 -43.5t107 -41.5t117.5 -54.5t107.5 -74.5t79 -108.5t30.5 -149.5q0 -53 -26 -105 t-74.5 -96.5t-129 -72t-178.5 -27.5q-51 0 -97.5 8.5t-82.5 21t-69 33t-56.5 40t-46 46t-35.5 46.5t-27 46.5t-19.5 40t-13.5 34t-9 22.5q-12 28 18 41l154 69q29 13 43 -10q3 -5 12 -24.5t17.5 -36.5t25.5 -39t36 -37t49 -26t65 -11q71 0 71 61q0 33 -21 59t-55 43.5 t-77.5 36.5t-89 36t-89 44t-77.5 59t-55 81.5t-21 111.5q0 50 18.5 90t44.5 66t52 48.5t44.5 49.5t18.5 58q0 37 -36.5 64.5t-98.5 27.5q-162 0 -162 -223v-689h74q31 0 31 -30v-213q0 -31 -31 -31h-508q-31 0 -31 31z" />
<glyph unicode="&#xe0;" horiz-adv-x="1163" d="M49 283q0 147 129.5 227t376.5 80h123v6q0 121 -150 121q-76 0 -133.5 -16.5t-87.5 -33t-37 -16.5q-20 0 -30 15l-136 172q-14 21 2 34q6 6 18 16t53.5 36t89.5 46t126 36t162 16q102 0 184.5 -23.5t147 -73.5t100 -135t35.5 -200v-316h92q31 0 31 -30v-213 q0 -31 -31 -31h-285q-47 0 -73.5 26.5t-26.5 73.5v62h-4q-4 -7 -11 -19.5t-36 -43.5t-63.5 -54.5t-95.5 -43t-130 -19.5q-158 0 -249 83t-91 218zM215 1470q-1 15 8 27l150 178q11 12 26.5 14t26.5 -8l397 -360q12 -11 13 -26t-9 -27l-118 -142q-10 -12 -26 -13.5t-28 7.5 l-428 326q-11 9 -12 24zM410 346q0 -76 116 -76q91 0 152 74v80h-98q-82 0 -126 -21t-44 -57z" />
<glyph unicode="&#xe1;" horiz-adv-x="1163" d="M49 283q0 147 129.5 227t376.5 80h123v6q0 121 -150 121q-76 0 -133.5 -16.5t-87.5 -33t-37 -16.5q-20 0 -30 15l-136 172q-14 21 2 34q6 6 18 16t53.5 36t89.5 46t126 36t162 16q102 0 184.5 -23.5t147 -73.5t100 -135t35.5 -200v-316h92q31 0 31 -30v-213 q0 -31 -31 -31h-285q-47 0 -73.5 26.5t-26.5 73.5v62h-4q-4 -7 -11 -19.5t-36 -43.5t-63.5 -54.5t-95.5 -43t-130 -19.5q-158 0 -249 83t-91 218zM356 1293q1 15 13 26l397 360q12 9 27.5 7.5t25.5 -13.5l150 -178q9 -12 8 -27t-12 -24l-428 -326q-12 -9 -28 -7.5t-26 13.5 l-118 142q-10 12 -9 27zM410 346q0 -76 116 -76q91 0 152 74v80h-98q-82 0 -126 -21t-44 -57z" />
<glyph unicode="&#xe2;" horiz-adv-x="1163" d="M49 283q0 147 129.5 227t376.5 80h123v6q0 121 -150 121q-76 0 -133.5 -16.5t-87.5 -33t-37 -16.5q-20 0 -30 15l-136 172q-14 21 2 34q6 6 18 16t53.5 36t89.5 46t126 36t162 16q102 0 184.5 -23.5t147 -73.5t100 -135t35.5 -200v-316h92q31 0 31 -30v-213 q0 -31 -31 -31h-285q-47 0 -73.5 26.5t-26.5 73.5v62h-4q-4 -7 -11 -19.5t-36 -43.5t-63.5 -54.5t-95.5 -43t-130 -19.5q-158 0 -249 83t-91 218zM225.5 1293q1.5 15 12.5 26l366 332q8 8 23 8q13 0 28 -12l363 -328q11 -11 12 -26t-8 -27l-117 -138q-9 -12 -24 -13t-27 9 l-227 207l-226 -207q-11 -10 -26.5 -9t-24.5 13l-117 138q-9 12 -7.5 27zM410 346q0 -76 116 -76q91 0 152 74v80h-98q-82 0 -126 -21t-44 -57z" />
<glyph unicode="&#xe3;" horiz-adv-x="1163" d="M49 283q0 147 129.5 227t376.5 80h123v6q0 121 -150 121q-76 0 -133.5 -16.5t-87.5 -33t-37 -16.5q-20 0 -30 15l-136 172q-14 21 2 34q6 6 18 16t53.5 36t89.5 46t126 36t162 16q102 0 184.5 -23.5t147 -73.5t100 -135t35.5 -200v-316h92q31 0 31 -30v-213 q0 -31 -31 -31h-285q-47 0 -73.5 26.5t-26.5 73.5v62h-4q-4 -7 -11 -19.5t-36 -43.5t-63.5 -54.5t-95.5 -43t-130 -19.5q-158 0 -249 83t-91 218zM233 1149q0 143 60.5 227t181.5 84q50 0 92.5 -15.5t70 -37.5t51.5 -44t50 -37.5t52 -16.5q39 0 59 28.5t20 106.5q0 31 31 31 h115q31 0 31 -31q0 -147 -60 -230.5t-182 -83.5q-49 0 -91 14.5t-70 35t-52 41t-50 35t-53 14.5q-40 0 -59.5 -24t-19.5 -97q0 -31 -31 -31h-115q-31 0 -31 31zM410 346q0 -76 116 -76q91 0 152 74v80h-98q-82 0 -126 -21t-44 -57z" />
<glyph unicode="&#xe4;" horiz-adv-x="1163" d="M49 283q0 147 129.5 227t376.5 80h123v6q0 121 -150 121q-76 0 -133.5 -16.5t-87.5 -33t-37 -16.5q-20 0 -30 15l-136 172q-14 21 2 34q6 6 18 16t53.5 36t89.5 46t126 36t162 16q102 0 184.5 -23.5t147 -73.5t100 -135t35.5 -200v-316h92q31 0 31 -30v-213 q0 -31 -31 -31h-285q-47 0 -73.5 26.5t-26.5 73.5v62h-4q-4 -7 -11 -19.5t-36 -43.5t-63.5 -54.5t-95.5 -43t-130 -19.5q-158 0 -249 83t-91 218zM256 1284q0 63 43 107.5t104 44.5q63 0 107.5 -44.5t44.5 -107.5t-44.5 -106t-107.5 -43q-62 0 -104.5 43t-42.5 106zM410 346 q0 -76 116 -76q91 0 152 74v80h-98q-82 0 -126 -21t-44 -57zM682 1284q0 63 43 107.5t104 44.5q63 0 107.5 -44.5t44.5 -107.5t-44.5 -106t-107.5 -43q-62 0 -104.5 43t-42.5 106z" />
<glyph unicode="&#xe5;" horiz-adv-x="1163" d="M49 283q0 147 129.5 227t376.5 80h123v6q0 121 -150 121q-76 0 -133.5 -16.5t-87.5 -33t-37 -16.5q-20 0 -30 15l-136 172q-14 21 2 34q6 6 18 16t53.5 36t89.5 46t126 36t162 16q102 0 184.5 -23.5t147 -73.5t100 -135t35.5 -200v-316h92q31 0 31 -30v-213 q0 -31 -31 -31h-285q-47 0 -73.5 26.5t-26.5 73.5v62h-4q-4 -7 -11 -19.5t-36 -43.5t-63.5 -54.5t-95.5 -43t-130 -19.5q-158 0 -249 83t-91 218zM410 346q0 -76 116 -76q91 0 152 74v80h-98q-82 0 -126 -21t-44 -57zM430 1294q0 72 50 124t122 52t122 -52t50 -124t-50 -124 t-122 -52t-122 52t-50 124zM549 1294q0 -24 15 -40.5t38 -16.5t38 16.5t15 40.5t-15 41t-38 17t-38 -17t-15 -41z" />
<glyph unicode="&#xe6;" horiz-adv-x="1763" d="M49 283q0 147 129.5 227t376.5 80h123v2q0 125 -150 125q-76 0 -133.5 -16.5t-87.5 -33t-37 -16.5q-20 0 -30 15l-136 172q-14 21 2 34q6 6 18 16t53.5 36t89.5 46t126 36t162 16q214 0 334 -100q139 100 311 100q247 0 371.5 -135.5t124.5 -390.5q0 -15 -11 -26t-26 -11 h-625q18 -91 79 -137t147 -46q44 0 86 11.5t71 28t51.5 33.5t33.5 29l11 11q10 12 22.5 13t25.5 -11l129 -143q22 -25 4 -49q-8 -13 -25 -32.5t-58.5 -53t-91.5 -60.5t-128 -47t-164 -20q-138 0 -255.5 51t-191.5 147v-4q-58 -79 -158.5 -137.5t-232.5 -58.5q-158 0 -249 82 t-91 217zM410 346q0 -76 116 -76q91 0 152 74v80h-98q-82 0 -126 -21t-44 -57zM1040 631h330q-2 21 -10 40.5t-24.5 40t-48 32.5t-73.5 12q-148 0 -174 -125z" />
<glyph unicode="&#xe7;" horiz-adv-x="1169" d="M59 506q0 121 43.5 221t115 163t160 97.5t181.5 34.5q60 0 112 -13t82.5 -31t53 -36.5t31.5 -31.5l8 -13h4l-4 80q-3 31 31 31h184q31 0 31 -31v-399q0 -31 -31 -31h-230q-30 0 -30 31v24q-3 56 -52 91.5t-126 35.5q-83 0 -148 -57t-65 -164q0 -109 66 -170.5t165 -61.5 q40 0 80 12.5t68.5 30t51.5 34.5t35 29l11 13q24 28 47 2l137 -149q22 -25 4 -49q-8 -12 -23.5 -30.5t-53 -49.5t-82.5 -57t-114.5 -47.5t-146.5 -26.5l-8 -27q10 0 22.5 -1.5t34 -8.5t38.5 -19.5t29.5 -38t12.5 -59.5q0 -78 -53 -125t-139 -47q-55 0 -106.5 17t-75.5 34 l-25 17q-12 8 -14.5 22.5t6.5 28.5l29 39q9 12 24 14t29 -8q11 -7 40.5 -18t59.5 -11q57 0 57 37q0 24 -12.5 34.5t-48.5 10.5q-41 0 -53.5 7t-3.5 32l26 74q-204 24 -334.5 161t-130.5 353z" />
<glyph unicode="&#xe8;" horiz-adv-x="1144" d="M59 506q0 97 31 181.5t83 145t119.5 104t141.5 64.5t148 21q247 0 371 -135t124 -391q0 -15 -11 -26t-26 -11h-624q18 -91 78.5 -137t146.5 -46q44 0 86 11.5t71 28t52 33.5t34 29l11 11q24 28 47 2l129 -143q22 -25 4 -49q-8 -13 -25 -32.5t-58.5 -53t-91.5 -60.5 t-128 -47t-164 -20q-152 0 -275.5 60.5t-198.5 180.5t-75 279zM252 1470q-1 15 8 27l150 178q11 12 26.5 14t26.5 -8l397 -360q12 -11 13 -26t-9 -27l-119 -142q-10 -12 -25.5 -13.5t-27.5 7.5l-428 326q-11 9 -12 24zM422 631h330q-2 21 -10 40.5t-24.5 40t-48 32.5 t-73.5 12q-148 0 -174 -125z" />
<glyph unicode="&#xe9;" horiz-adv-x="1144" d="M59 506q0 97 31 181.5t83 145t119.5 104t141.5 64.5t148 21q247 0 371 -135t124 -391q0 -15 -11 -26t-26 -11h-624q18 -91 78.5 -137t146.5 -46q44 0 86 11.5t71 28t52 33.5t34 29l11 11q24 28 47 2l129 -143q22 -25 4 -49q-8 -13 -25 -32.5t-58.5 -53t-91.5 -60.5 t-128 -47t-164 -20q-152 0 -275.5 60.5t-198.5 180.5t-75 279zM390 1293q1 15 13 26l398 360q12 9 27.5 7.5t25.5 -13.5l150 -178q9 -12 7.5 -27t-12.5 -24l-428 -326q-12 -9 -27.5 -7.5t-25.5 13.5l-119 142q-10 12 -9 27zM422 631h330q-2 21 -10 40.5t-24.5 40t-48 32.5 t-73.5 12q-148 0 -174 -125z" />
<glyph unicode="&#xea;" horiz-adv-x="1144" d="M59 506q0 97 31 181.5t83 145t119.5 104t141.5 64.5t148 21q247 0 371 -135t124 -391q0 -15 -11 -26t-26 -11h-624q18 -91 78.5 -137t146.5 -46q44 0 86 11.5t71 28t52 33.5t34 29l11 11q24 28 47 2l129 -143q22 -25 4 -49q-8 -13 -25 -32.5t-58.5 -53t-91.5 -60.5 t-128 -47t-164 -20q-152 0 -275.5 60.5t-198.5 180.5t-75 279zM230 1293q1 15 12 26l366 332q8 8 23 8q13 0 28 -12l363 -328q11 -11 12 -26t-8 -27l-117 -138q-9 -12 -24 -13t-27 9l-227 207l-225 -207q-10 -10 -26.5 -9t-25.5 13l-116 138q-9 12 -8 27zM422 631h330 q-2 21 -10 40.5t-24.5 40t-48 32.5t-73.5 12q-148 0 -174 -125z" />
<glyph unicode="&#xeb;" horiz-adv-x="1144" d="M59 506q0 97 31 181.5t83 145t119.5 104t141.5 64.5t148 21q247 0 371 -135t124 -391q0 -15 -11 -26t-26 -11h-624q18 -91 78.5 -137t146.5 -46q44 0 86 11.5t71 28t52 33.5t34 29l11 11q24 28 47 2l129 -143q22 -25 4 -49q-8 -13 -25 -32.5t-58.5 -53t-91.5 -60.5 t-128 -47t-164 -20q-152 0 -275.5 60.5t-198.5 180.5t-75 279zM248 1284q0 63 43 107.5t104 44.5q63 0 107.5 -44.5t44.5 -107.5t-44.5 -106t-107.5 -43q-62 0 -104.5 43t-42.5 106zM422 631h330q-2 21 -10 40.5t-24.5 40t-48 32.5t-73.5 12q-148 0 -174 -125zM674 1284 q0 63 43 107.5t104 44.5q63 0 107.5 -44.5t44.5 -107.5t-44.5 -106t-107.5 -43q-62 0 -104.5 43t-42.5 106z" />
<glyph unicode="&#xec;" horiz-adv-x="714" d="M-133 1470q-1 15 8 27l150 178q11 12 26.5 14t26.5 -8l397 -360q12 -11 13 -26t-9 -27l-119 -142q-10 -12 -25.5 -13.5t-27.5 7.5l-428 326q-11 9 -12 24zM78 31v213q0 30 31 30h90v459h-90q-31 0 -31 31v213q0 31 31 31h403q31 0 31 -31v-703h73q31 0 31 -30v-213 q0 -31 -31 -31h-507q-31 0 -31 31z" />
<glyph unicode="&#xed;" horiz-adv-x="714" d="M80 31v213q0 30 31 30h90v459h-90q-31 0 -31 31v213q0 31 31 31h403q31 0 31 -31v-703h73q31 0 31 -30v-213q0 -31 -31 -31h-507q-31 0 -31 31zM218 1293q1 15 13 26l398 360q12 9 27.5 7.5t25.5 -13.5l149 -178q9 -12 8 -27t-12 -24l-428 -326q-12 -9 -27.5 -7.5 t-25.5 13.5l-119 142q-10 12 -9 27z" />
<glyph unicode="&#xee;" horiz-adv-x="714" d="M-39 1293q1 15 12 26l367 332q8 8 22 8t29 -12l363 -328q11 -11 12 -26t-8 -27l-117 -138q-9 -12 -24 -13t-27 9l-228 207l-225 -207q-11 -10 -26.5 -9t-24.5 13l-117 138q-9 12 -8 27zM80 31v213q0 30 31 30h90v459h-90q-31 0 -31 31v213q0 31 31 31h403q31 0 31 -31 v-703h73q31 0 31 -30v-213q0 -31 -31 -31h-507q-31 0 -31 31z" />
<glyph unicode="&#xef;" horiz-adv-x="714" d="M-27 1284q0 63 43.5 107.5t104.5 44.5q63 0 107 -44.5t44 -107.5t-44 -106t-107 -43q-62 0 -105 43t-43 106zM80 31v213q0 30 31 30h90v459h-90q-31 0 -31 31v213q0 31 31 31h403q31 0 31 -31v-703h73q31 0 31 -30v-213q0 -31 -31 -31h-507q-31 0 -31 31zM399 1284 q0 63 43.5 107.5t104.5 44.5q63 0 107 -44.5t44 -107.5t-44 -106t-107 -43q-62 0 -105 43t-43 106z" />
<glyph unicode="&#xf0;" horiz-adv-x="1271" d="M66 492q0 96 30.5 173t93.5 136.5t169 92t247 32.5q142 0 238 -47q-11 97 -41 172l-64 -64q-11 -11 -27 -11t-26 11l-84 86q-10 11 -10 26t10 25l62 60q-27 8 -64 8q-149 0 -149 -72q0 -30 -31 -30h-250q-31 0 -31 30q0 161 114.5 262t344.5 101q161 0 295 -76l76 74 q11 11 27 11t26 -11l76 -80q10 -11 10 -26t-10 -25l-62 -64q166 -201 166 -543q0 -379 -155.5 -568t-432.5 -189q-133 0 -239.5 41t-173 111t-101 160.5t-34.5 193.5zM418 473q0 -92 47 -144.5t135 -52.5q123 0 180 86.5t66 276.5q-95 37 -176 37q-72 0 -123.5 -19 t-78.5 -50.5t-38.5 -64.5t-11.5 -69z" />
<glyph unicode="&#xf1;" horiz-adv-x="1288" d="M80 31v213q0 30 31 30h90v459h-90q-31 0 -31 31v213q0 31 31 31h352q31 0 31 -31v-127h8q1 4 3.5 10t12.5 24t23 34t36.5 36t51.5 34t69.5 24t89.5 10q161 0 250.5 -100.5t91.5 -262.5v-385h93q30 0 30 -30v-213q0 -31 -30 -31h-336q-47 0 -74 26.5t-27 73.5v439 q0 35 -2 58.5t-9.5 48t-21 39t-37 23.5t-57.5 9q-27 0 -48.5 -9.5t-33 -21t-19 -27.5t-10 -25t-3.5 -16v-344h73q31 0 31 -30v-213q0 -31 -31 -31h-507q-31 0 -31 31zM211 1149q0 143 60.5 227t181.5 84q50 0 92 -15.5t70 -37.5t51.5 -44t49.5 -37.5t52 -16.5 q39 0 59.5 28.5t20.5 106.5q0 31 31 31h114q31 0 31 -31q0 -147 -60 -230.5t-182 -83.5q-60 0 -110 22t-77.5 48t-61.5 48t-66 22q-40 0 -60 -24t-20 -97q0 -31 -31 -31h-114q-31 0 -31 31z" />
<glyph unicode="&#xf2;" horiz-adv-x="1212" d="M61 506q0 235 149 375.5t396 140.5t396 -140.5t149 -375.5q0 -238 -146 -379t-401 -141q-253 0 -398 141t-145 379zM232 1470q-1 15 8 27l149 178q11 12 26.5 14t26.5 -8l398 -360q12 -11 13 -26t-9 -27l-119 -142q-10 -12 -25.5 -13.5t-27.5 7.5l-428 326q-11 9 -12 24z M412 508q0 -105 50.5 -168.5t141.5 -63.5q92 0 144.5 63.5t52.5 168.5q0 102 -52.5 161.5t-142.5 59.5q-89 0 -141.5 -59.5t-52.5 -161.5z" />
<glyph unicode="&#xf3;" horiz-adv-x="1212" d="M61 506q0 235 149 375.5t396 140.5t396 -140.5t149 -375.5q0 -238 -146 -379t-401 -141q-253 0 -398 141t-145 379zM407 1293q1 15 13 26l397 360q12 9 27.5 7.5t25.5 -13.5l150 -178q9 -12 8 -27t-12 -24l-428 -326q-12 -9 -27.5 -7.5t-25.5 13.5l-119 142q-10 12 -9 27 zM412 508q0 -105 50.5 -168.5t141.5 -63.5q92 0 144.5 63.5t52.5 168.5q0 102 -52.5 161.5t-142.5 59.5q-89 0 -141.5 -59.5t-52.5 -161.5z" />
<glyph unicode="&#xf4;" horiz-adv-x="1212" d="M61 506q0 235 149 375.5t396 140.5t396 -140.5t149 -375.5q0 -238 -146 -379t-401 -141q-253 0 -398 141t-145 379zM232 1293q1 15 12 26l366 332q8 8 23 8q14 0 29 -12l362 -328q11 -11 12 -26t-8 -27l-117 -138q-9 -12 -24 -13t-27 9l-227 207l-225 -207 q-10 -10 -26.5 -9t-25.5 13l-116 138q-9 12 -8 27zM412 508q0 -105 50.5 -168.5t141.5 -63.5q92 0 144.5 63.5t52.5 168.5q0 102 -52.5 161.5t-142.5 59.5q-89 0 -141.5 -59.5t-52.5 -161.5z" />
<glyph unicode="&#xf5;" horiz-adv-x="1212" d="M61 506q0 235 149 375.5t396 140.5t396 -140.5t149 -375.5q0 -238 -146 -379t-401 -141q-253 0 -398 141t-145 379zM242 1149q0 143 60 227t181 84q50 0 92.5 -15.5t70 -37.5t51.5 -44t50 -37.5t52 -16.5q39 0 59.5 28.5t20.5 106.5q0 31 30 31h115q31 0 31 -31 q0 -147 -60 -230.5t-182 -83.5q-60 0 -110 22t-77.5 48t-61.5 48t-66 22q-40 0 -60 -24t-20 -97q0 -31 -31 -31h-115q-30 0 -30 31zM412 508q0 -105 50.5 -168.5t141.5 -63.5q92 0 144.5 63.5t52.5 168.5q0 102 -52.5 161.5t-142.5 59.5q-89 0 -141.5 -59.5t-52.5 -161.5z " />
<glyph unicode="&#xf6;" horiz-adv-x="1212" d="M61 506q0 235 149 375.5t396 140.5t396 -140.5t149 -375.5q0 -238 -146 -379t-401 -141q-253 0 -398 141t-145 379zM254 1284q0 63 43 107.5t104 44.5q63 0 107.5 -44.5t44.5 -107.5t-44.5 -106t-107.5 -43q-62 0 -104.5 43t-42.5 106zM412 508q0 -105 50.5 -168.5 t141.5 -63.5q92 0 144.5 63.5t52.5 168.5q0 102 -52.5 161.5t-142.5 59.5q-89 0 -141.5 -59.5t-52.5 -161.5zM680 1284q0 63 43 107.5t104 44.5q63 0 107.5 -44.5t44.5 -107.5t-44.5 -106t-107.5 -43q-62 0 -104.5 43t-42.5 106z" />
<glyph unicode="&#xf7;" horiz-adv-x="927" d="M80 524v250q0 15 11 26t26 11h694q15 0 26 -11t11 -26v-250q0 -15 -11 -26t-26 -11h-694q-15 0 -26 11t-11 26zM328 272q0 63 43 107.5t106 44.5t107.5 -44.5t44.5 -107.5t-44.5 -106t-107.5 -43t-106 43t-43 106zM328 1018q0 63 43 107t106 44t107.5 -44t44.5 -107 t-44.5 -106.5t-107.5 -43.5t-106 43.5t-43 106.5z" />
<glyph unicode="&#xf8;" horiz-adv-x="1212" d="M61 506q0 235 149 375.5t396 140.5q100 0 195 -29l10 19q17 30 39 30h68q16 0 22.5 -8t-0.5 -22l-31 -62q115 -65 178.5 -179.5t63.5 -264.5q0 -238 -146 -379t-401 -141q-86 0 -174 20l-18 -37q-17 -30 -39 -30h-68q-14 0 -21.5 8.5t-0.5 21.5l39 76q-125 63 -193 182 t-68 279zM412 508q0 -113 55 -174l197 387q-24 8 -58 8q-89 0 -141.5 -59.5t-52.5 -161.5zM567 279q18 -3 37 -3q92 0 144.5 63.5t52.5 168.5q0 91 -41 147z" />
<glyph unicode="&#xf9;" horiz-adv-x="1261" d="M37 764v213q0 31 31 31h335q47 0 74 -27t27 -74v-438q0 -35 2 -58.5t9.5 -48t21 -39t37 -23.5t57.5 -9q33 0 57.5 12.5t35.5 31t16 32t5 22.5v344h-73q-31 0 -31 31v213q0 31 31 31h387q31 0 31 -31v-703h90q30 0 30 -30v-213q0 -31 -30 -31h-285q-47 0 -73.5 26.5 t-26.5 73.5v58h-7q-1 -7 -5 -18.5t-22.5 -41t-45 -52.5t-78.5 -41.5t-117 -18.5q-163 0 -261.5 101.5t-98.5 260.5v385h-92q-31 0 -31 31zM160 1470q-1 15 8 27l149 178q11 12 27 14t27 -8l397 -360q12 -11 13 -26t-9 -27l-119 -142q-10 -12 -25.5 -13.5t-27.5 7.5l-428 326 q-11 9 -12 24z" />
<glyph unicode="&#xfa;" horiz-adv-x="1261" d="M37 764v213q0 31 31 31h335q47 0 74 -27t27 -74v-438q0 -35 2 -58.5t9.5 -48t21 -39t37 -23.5t57.5 -9q33 0 57.5 12.5t35.5 31t16 32t5 22.5v344h-73q-31 0 -31 31v213q0 31 31 31h387q31 0 31 -31v-703h90q30 0 30 -30v-213q0 -31 -30 -31h-285q-47 0 -73.5 26.5 t-26.5 73.5v58h-7q-1 -7 -5 -18.5t-22.5 -41t-45 -52.5t-78.5 -41.5t-117 -18.5q-163 0 -261.5 101.5t-98.5 260.5v385h-92q-31 0 -31 31zM296 1293q1 15 13 26l398 360q12 9 27.5 7.5t25.5 -13.5l149 -178q9 -12 8 -27t-12 -24l-428 -326q-12 -9 -27.5 -7.5t-25.5 13.5 l-119 142q-10 12 -9 27z" />
<glyph unicode="&#xfb;" horiz-adv-x="1261" d="M37 764v213q0 31 31 31h335q47 0 74 -27t27 -74v-438q0 -35 2 -58.5t9.5 -48t21 -39t37 -23.5t57.5 -9q33 0 57.5 12.5t35.5 31t16 32t5 22.5v344h-73q-31 0 -31 31v213q0 31 31 31h387q31 0 31 -31v-703h90q30 0 30 -30v-213q0 -31 -30 -31h-285q-47 0 -73.5 26.5 t-26.5 73.5v58h-7q-1 -7 -5 -18.5t-22.5 -41t-45 -52.5t-78.5 -41.5t-117 -18.5q-163 0 -261.5 101.5t-98.5 260.5v385h-92q-31 0 -31 31zM172 1293q1 15 12 26l367 332q8 8 22 8t29 -12l363 -328q11 -11 12 -26t-8 -27l-117 -138q-9 -12 -24 -13t-27 9l-228 207l-225 -207 q-11 -10 -26.5 -9t-24.5 13l-117 138q-9 12 -8 27z" />
<glyph unicode="&#xfc;" horiz-adv-x="1261" d="M37 764v213q0 31 31 31h335q47 0 74 -27t27 -74v-438q0 -35 2 -58.5t9.5 -48t21 -39t37 -23.5t57.5 -9q33 0 57.5 12.5t35.5 31t16 32t5 22.5v344h-73q-31 0 -31 31v213q0 31 31 31h387q31 0 31 -31v-703h90q30 0 30 -30v-213q0 -31 -30 -31h-285q-47 0 -73.5 26.5 t-26.5 73.5v58h-7q-1 -7 -5 -18.5t-22.5 -41t-45 -52.5t-78.5 -41.5t-117 -18.5q-163 0 -261.5 101.5t-98.5 260.5v385h-92q-31 0 -31 31zM223 1284q0 63 43.5 107.5t104.5 44.5q63 0 107 -44.5t44 -107.5t-44 -106t-107 -43q-62 0 -105 43t-43 106zM649 1284 q0 63 43.5 107.5t104.5 44.5q63 0 107 -44.5t44 -107.5t-44 -106t-107 -43q-62 0 -105 43t-43 106z" />
<glyph unicode="&#xfd;" horiz-adv-x="1275" d="M23 764v213q0 31 30 31h490q30 0 30 -31v-213q0 -31 -30 -31h-39l121 -448h4l141 448h-63q-31 0 -31 31v213q0 31 31 31h522q31 0 31 -31v-213q0 -31 -31 -31h-105l-280 -801q-23 -66 -37.5 -105t-37 -89.5t-42.5 -79t-48.5 -60t-60 -47t-73.5 -26t-92 -10.5 q-62 0 -113.5 11.5t-94 36.5t-60.5 38.5t-51 42.5q-6 5 -9 8q-30 30 -14 49l131 168q18 21 45 0q3 -2 10.5 -9t10.5 -9.5t11 -8.5t13.5 -8t14.5 -6t18.5 -5.5t22 -3t26.5 -1.5q25 0 43.5 9.5t31.5 29t19.5 34.5t15.5 41l23 68h-72q-42 0 -63 18t-35 60l-223 655h-101 q-30 0 -30 31zM446 1293q1 15 13 26l397 360q12 9 27.5 7.5t25.5 -13.5l150 -178q9 -12 8 -27t-12 -24l-428 -326q-12 -9 -28 -7.5t-26 13.5l-118 142q-10 12 -9 27z" />
<glyph unicode="&#xfe;" horiz-adv-x="1239" d="M8 -221q0 31 31 31h92v1386h-80q-31 0 -31 31v213q0 30 31 30h393q31 0 31 -30v-492q94 76 240 76q205 0 333 -137t128 -389q0 -229 -122.5 -370.5t-334.5 -141.5q-52 0 -98 9.5t-74.5 22.5t-49.5 26t-29 22l-9 10h-4q4 -62 4 -82v-184h147q31 0 31 -31v-213 q0 -31 -31 -31h-567q-31 0 -31 31v213zM463 498q0 -112 53 -168t129 -56q86 0 138.5 59.5t52.5 162.5q0 106 -50 169.5t-141 63.5q-81 0 -131.5 -58t-50.5 -173z" />
<glyph unicode="&#xff;" horiz-adv-x="1275" d="M23 764v213q0 31 30 31h490q30 0 30 -31v-213q0 -31 -30 -31h-39l121 -448h4l141 448h-63q-31 0 -31 31v213q0 31 31 31h522q31 0 31 -31v-213q0 -31 -31 -31h-105l-280 -801q-23 -66 -37.5 -105t-37 -89.5t-42.5 -79t-48.5 -60t-60 -47t-73.5 -26t-92 -10.5 q-62 0 -113.5 11.5t-94 36.5t-60.5 38.5t-51 42.5q-6 5 -9 8q-30 30 -14 49l131 168q18 21 45 0q3 -2 10.5 -9t10.5 -9.5t11 -8.5t13.5 -8t14.5 -6t18.5 -5.5t22 -3t26.5 -1.5q25 0 43.5 9.5t31.5 29t19.5 34.5t15.5 41l23 68h-72q-42 0 -63 18t-35 60l-223 655h-101 q-30 0 -30 31zM270 1284q0 63 43.5 107.5t104.5 44.5q63 0 107 -44.5t44 -107.5t-44 -106t-107 -43q-62 0 -105 43t-43 106zM696 1284q0 63 43.5 107.5t104.5 44.5q63 0 107 -44.5t44 -107.5t-44 -106t-107 -43q-62 0 -105 43t-43 106z" />
<glyph unicode="&#x152;" horiz-adv-x="2004" d="M72 743q0 143 42.5 264t114 204.5t166.5 142.5t199.5 87t214.5 29h1051q30 0 30 -30v-463q0 -31 -30 -31h-263q-30 0 -30 31v194h-396v-282h320q31 0 31 -31v-237q0 -31 -31 -31h-320v-291h394v195q0 30 30 30h265q30 0 30 -30v-463q0 -31 -30 -31h-1043 q-156 0 -293.5 54t-237 150.5t-157 236t-57.5 302.5zM453 737q0 -173 100.5 -291.5t255.5 -121.5v825q-156 -3 -256 -115t-100 -297z" />
<glyph unicode="&#x153;" horiz-adv-x="1886" d="M61 506q0 235 149 375.5t396 140.5q229 0 377 -123q151 123 340 123q247 0 371.5 -135.5t124.5 -390.5q0 -15 -11 -26t-26 -11h-625q18 -91 78.5 -137t146.5 -46q44 0 86 11.5t71 28t52 33.5t34 29l11 11q24 28 47 2l129 -143q23 -25 5 -49q-8 -13 -25 -32.5t-58.5 -53 t-91.5 -60.5t-128 -47t-164 -20q-222 0 -369 120q-142 -120 -377 -120q-253 0 -398 141t-145 379zM412 508q0 -105 50.5 -168.5t141.5 -63.5q92 0 144.5 63.5t52.5 168.5q0 102 -52.5 161.5t-142.5 59.5q-89 0 -141.5 -59.5t-52.5 -161.5zM1163 631h330q-2 21 -10 40.5 t-24.5 40t-48 32.5t-73.5 12q-148 0 -174 -125z" />
<glyph unicode="&#x178;" horiz-adv-x="1480" d="M-20 1202v238q0 30 30 30h652q30 0 30 -30v-238q0 -31 -30 -31h-103l189 -319h10l182 319h-113q-30 0 -30 31v238q0 30 30 30h646q30 0 30 -30v-238q0 -31 -30 -31h-140q-316 -486 -418 -616v-256h138q30 0 30 -31v-237q0 -31 -30 -31h-629q-31 0 -31 31v237q0 31 31 31 h137v256q-60 77 -411 616h-140q-30 0 -30 31zM338 1747q0 63 43 107t104 44q63 0 107.5 -44t44.5 -107t-44.5 -106.5t-107.5 -43.5q-62 0 -104.5 43.5t-42.5 106.5zM764 1747q0 63 43 107t104 44q63 0 107.5 -44t44.5 -107t-44.5 -106.5t-107.5 -43.5q-62 0 -104.5 43.5 t-42.5 106.5z" />
<glyph unicode="&#x2c6;" horiz-adv-x="907" d="M51 1293q1 15 12 26l367 332q8 8 23 8q13 0 28 -12l363 -328q11 -11 12 -26t-8 -27l-117 -138q-9 -12 -24 -13t-27 9l-227 207l-226 -207q-11 -10 -26.5 -9t-24.5 13l-117 138q-9 12 -8 27z" />
<glyph unicode="&#x2dc;" horiz-adv-x="915" d="M51 1149q0 143 60.5 227t181.5 84q50 0 92 -15.5t70 -37.5t51.5 -44t49.5 -37.5t52 -16.5q39 0 59.5 28.5t20.5 106.5q0 31 31 31h115q30 0 30 -31q0 -147 -59.5 -230.5t-181.5 -83.5q-49 0 -91 14.5t-70 35t-52 41t-50 35t-53 14.5q-40 0 -60 -24t-20 -97q0 -31 -30 -31 h-115q-31 0 -31 31z" />
<glyph unicode="&#x2000;" horiz-adv-x="1076" />
<glyph unicode="&#x2001;" horiz-adv-x="2152" />
<glyph unicode="&#x2002;" horiz-adv-x="1076" />
<glyph unicode="&#x2003;" horiz-adv-x="2152" />
<glyph unicode="&#x2004;" horiz-adv-x="717" />
<glyph unicode="&#x2005;" horiz-adv-x="538" />
<glyph unicode="&#x2006;" horiz-adv-x="358" />
<glyph unicode="&#x2007;" horiz-adv-x="358" />
<glyph unicode="&#x2008;" horiz-adv-x="269" />
<glyph unicode="&#x2009;" horiz-adv-x="430" />
<glyph unicode="&#x200a;" horiz-adv-x="119" />
<glyph unicode="&#x2010;" horiz-adv-x="1013" d="M123 420v250q0 15 11 26t26 11h694q15 0 26 -11t11 -26v-250q0 -15 -11 -26t-26 -11h-694q-15 0 -26 11t-11 26z" />
<glyph unicode="&#x2011;" horiz-adv-x="1013" d="M123 420v250q0 15 11 26t26 11h694q15 0 26 -11t11 -26v-250q0 -15 -11 -26t-26 -11h-694q-15 0 -26 11t-11 26z" />
<glyph unicode="&#x2012;" horiz-adv-x="1013" d="M123 420v250q0 15 11 26t26 11h694q15 0 26 -11t11 -26v-250q0 -15 -11 -26t-26 -11h-694q-15 0 -26 11t-11 26z" />
<glyph unicode="&#x2013;" horiz-adv-x="1314" d="M123 420v250q0 15 11 26t26 11h995q15 0 26 -11t11 -26v-250q0 -15 -11 -26t-26 -11h-995q-15 0 -26 11t-11 26z" />
<glyph unicode="&#x2014;" horiz-adv-x="1972" d="M123 420v250q0 15 11 26t26 11h1652q15 0 26 -11t11 -26v-250q0 -15 -11 -26t-26 -11h-1652q-15 0 -26 11t-11 26z" />
<glyph unicode="&#x2018;" horiz-adv-x="466" d="M72 1432q0 297 215 297q16 0 16 -13v-82q0 -14 -16 -14q-35 0 -59.5 -21t-24.5 -57l4 -31q12 7 35 7q63 0 106 -43.5t43 -106.5t-43 -107t-106 -44q-77 0 -123.5 57.5t-46.5 157.5z" />
<glyph unicode="&#x2019;" horiz-adv-x="485" d="M78 1370q0 63 43 107.5t106 44.5q77 0 123.5 -57.5t46.5 -157.5q0 -297 -215 -297q-6 0 -9 0.5t-5 3t-2 8.5v82q0 14 16 14q35 0 59.5 21t24.5 57l-4 31q-12 -6 -35 -6q-63 0 -106 43t-43 106z" />
<glyph unicode="&#x201a;" horiz-adv-x="522" d="M102 133q0 63 43.5 107.5t106.5 44.5q77 0 123.5 -57.5t46.5 -157.5q0 -297 -215 -297q-17 0 -17 12v82q0 14 17 14q35 0 59.5 21t24.5 57l-4 31q-12 -6 -35 -6q-63 0 -106.5 43t-43.5 106z" />
<glyph unicode="&#x201c;" horiz-adv-x="862" d="M72 1432q0 297 215 297q16 0 16 -13v-82q0 -14 -16 -14q-35 0 -59.5 -21t-24.5 -57l4 -31q12 7 35 7q63 0 106 -43.5t43 -106.5t-43 -107t-106 -44q-77 0 -123.5 57.5t-46.5 157.5zM467 1432q0 297 215 297q16 0 16 -13v-82q0 -14 -16 -14q-35 0 -59.5 -21t-24.5 -57 l4 -31q12 7 35 7q63 0 106 -43.5t43 -106.5t-43 -107t-106 -44q-77 0 -123.5 57.5t-46.5 157.5z" />
<glyph unicode="&#x201d;" horiz-adv-x="880" d="M78 1370q0 63 43 107.5t106 44.5q77 0 123.5 -57.5t46.5 -157.5q0 -297 -215 -297q-6 0 -9 0.5t-5 3t-2 8.5v82q0 14 16 14q35 0 59.5 21t24.5 57l-4 31q-12 -6 -35 -6q-63 0 -106 43t-43 106zM473 1370q0 63 43.5 107.5t106.5 44.5q77 0 123.5 -57.5t46.5 -157.5 q0 -297 -215 -297q-17 0 -17 12v82q0 14 17 14q35 0 59.5 21t24.5 57q0 7 -0.5 13t-1 9t-1.5 5t-1 3l-1 1q-11 -6 -34 -6q-63 0 -106.5 43t-43.5 106z" />
<glyph unicode="&#x201e;" horiz-adv-x="917" d="M102 133q0 63 43.5 107.5t106.5 44.5q77 0 123.5 -57.5t46.5 -157.5q0 -297 -215 -297q-17 0 -17 12v82q0 14 17 14q35 0 59.5 21t24.5 57l-4 31q-12 -6 -35 -6q-63 0 -106.5 43t-43.5 106zM498 133q0 63 43 107.5t106 44.5q77 0 123.5 -57.5t46.5 -157.5 q0 -297 -215 -297q-6 0 -9 0.5t-5 3t-2 8.5v82q0 14 16 14q35 0 59.5 21t24.5 57l-4 31q-12 -6 -35 -6q-63 0 -106 43t-43 106z" />
<glyph unicode="&#x2022;" horiz-adv-x="700" d="M160 686q0 90 50 144.5t140 54.5q87 0 140 -55.5t53 -143.5q0 -90 -52.5 -143.5t-140.5 -53.5q-91 0 -140.5 52.5t-49.5 144.5z" />
<glyph unicode="&#x2026;" horiz-adv-x="1204" d="M102 133q0 63 43.5 107.5t106.5 44.5t107 -44.5t44 -107.5t-44 -106t-107 -43t-106.5 43t-43.5 106zM455 133q0 63 43 107.5t106 44.5t107.5 -44.5t44.5 -107.5t-44.5 -106t-107.5 -43t-106 43t-43 106zM801 133q0 63 43 107.5t106 44.5t107.5 -44.5t44.5 -107.5 t-44.5 -106t-107.5 -43t-106 43t-43 106z" />
<glyph unicode="&#x202f;" horiz-adv-x="430" />
<glyph unicode="&#x205f;" horiz-adv-x="538" />
<glyph unicode="&#x20ac;" horiz-adv-x="1490" d="M76 496v163q0 31 30 31h99v35v39h-99q-30 0 -30 31v163q0 31 30 31h136q74 233 265 363.5t439 130.5q80 0 157 -16.5t129.5 -40.5t93 -48t60.5 -40l19 -17q19 -19 6 -43l-170 -203q-18 -26 -43 -4q-3 3 -8 8.5t-25.5 19t-45.5 23.5t-67.5 18.5t-90.5 8.5 q-87 -1 -166 -43.5t-133 -116.5h456q31 0 31 -31v-163q0 -31 -31 -31h-532v-29q0 -31 2 -45h395q31 0 31 -31v-163q0 -31 -31 -31h-307q52 -67 127 -104t158 -37q76 0 135.5 18t80.5 36l21 17q25 22 43 -4l170 -203q18 -25 -6 -43q-7 -7 -20.5 -17.5t-58.5 -38.5t-94.5 -49 t-127.5 -38.5t-158 -17.5q-161 0 -301 54.5t-246 164.5t-155 262h-138q-30 0 -30 31z" />
<glyph unicode="&#x2122;" horiz-adv-x="2254" d="M117 1139v311q0 9 6.5 14.5t15.5 5.5h793q9 0 15.5 -5.5t6.5 -14.5v-311q0 -9 -6.5 -15t-15.5 -6h-162q-20 0 -20 21v127h-93v-471h76q9 0 16 -7t7 -16v-160q0 -9 -7 -14.5t-16 -5.5h-389q-20 0 -20 20v160q0 9 5.5 16t14.5 7h76v471h-98v-127q0 -9 -7 -15t-16 -6h-160 q-9 0 -15.5 6t-6.5 15zM1016 610v166q0 19 18 19h78v471h-78q-18 0 -18 18v168q0 18 18 18h289q64 0 88 -67l100 -258l56 -152h6q24 70 57 152l103 258q24 67 88 67h282q19 0 19 -18v-168q0 -18 -19 -18h-78v-471h78q19 0 19 -19v-166q0 -18 -19 -18h-358q-19 0 -19 18v166 q0 19 19 19h43v282h-4l-127 -360q-22 -60 -88 -60q-64 0 -86 60l-127 360h-4v-282h43q18 0 18 -19v-166q0 -18 -18 -18h-361q-18 0 -18 18z" />
<glyph unicode="&#xe000;" horiz-adv-x="1003" d="M0 0v1004h1004v-1004h-1004z" />
</font>
</defs>
</svg>
